<?xml version="1.0" encoding="UTF-8"?>
<svg width="52px" height="52px" viewBox="0 0 52 52" version="1.1" xmlns="http://www.w3.org/2000/svg" xmlns:xlink="http://www.w3.org/1999/xlink">
    <!-- Generator: Sketch 52.4 (67378) - http://www.bohemiancoding.com/sketch -->
    <title>ic_ask</title>
    <desc>Created with Sketch.</desc>
    <g id="Assets" stroke="none" stroke-width="1" fill="none" fill-rule="evenodd">
        <g id="ic_ask">
            <rect id="Rectangle-3" x="8" y="8" width="36" height="36"></rect>
            <path d="M33.1608929,27.8379484 C33.1608929,27.2531763 33.6405878,26.7791249 34.2323214,26.7791249 C34.8240551,26.7791249 35.30375,27.2531763 35.30375,27.8379484 L35.30375,38.0354778 C35.30375,40.969214 32.9809006,43.3052425 29.9707143,43.3052425 L16.3330357,43.3052425 C13.3972842,43.3052425 11,40.9361617 11,38.0354778 L11,17.8209484 C11,14.9193518 13.3971363,12.5495955 16.3330357,12.5495955 L19.8339286,12.5495955 C20.4256622,12.5495955 20.9053571,13.0236469 20.9053571,13.608419 C20.9053571,14.1931911 20.4256622,14.6672425 19.8339286,14.6672425 L16.3330357,14.6672425 C14.58077,14.6672425 13.1428571,16.0887316 13.1428571,17.8209484 L13.1428571,38.0354778 C13.1428571,39.7666175 14.5807515,41.1875955 16.3330357,41.1875955 L29.9707143,41.1875955 C31.7889622,41.1875955 33.1608929,39.8078809 33.1608929,38.0354778 L33.1608929,27.8379484 Z M17.1853571,29.8280072 C16.5936235,29.8280072 16.1139286,29.3539558 16.1139286,28.7691837 C16.1139286,28.1844116 16.5936235,27.7103602 17.1853571,27.7103602 L29.1183929,27.7103602 C29.7101265,27.7103602 30.1898214,28.1844116 30.1898214,28.7691837 C30.1898214,29.3539558 29.7101265,29.8280072 29.1183929,29.8280072 L17.1853571,29.8280072 Z M17.1848214,34.0400072 C16.5930878,34.0400072 16.1133929,33.5659558 16.1133929,32.9811837 C16.1133929,32.3964116 16.5930878,31.9223602 17.1848214,31.9223602 L29.1183929,31.9223602 C29.7101265,31.9223602 30.1898214,32.3964116 30.1898214,32.9811837 C30.1898214,33.5659558 29.7101265,34.0400072 29.1183929,34.0400072 L17.1848214,34.0400072 Z M17.1253571,38.2520072 C16.5336235,38.2520072 16.0539286,37.7779558 16.0539286,37.1931837 C16.0539286,36.6084116 16.5336235,36.1343602 17.1253571,36.1343602 L29.0589286,36.1343602 C29.6506622,36.1343602 30.1303571,36.6084116 30.1303571,37.1931837 C30.1303571,37.7779558 29.6506622,38.2520072 29.0589286,38.2520072 L17.1253571,38.2520072 Z M38.234083,16.3838791 C38.2333488,16.3844248 38.2326162,16.3849721 38.2318853,16.3855211 L38.234083,16.3838791 Z M36.5758548,21.4247269 L36.5739865,21.4186585 C36.5745962,21.4206846 36.5752189,21.4227073 36.5758548,21.4247269 Z M24.6719386,20.7397762 L24.6778067,20.7398834 C24.6758515,20.7398364 24.6738954,20.7398007 24.6719386,20.7397762 Z M23.5164527,17.2324883 L23.5184168,17.2310218 C23.5177632,17.2315121 23.5171086,17.2320008 23.5164527,17.2324883 Z M29.0088646,9.76147881 C29.0086879,9.76198723 29.0085104,9.76249532 29.0083322,9.76300306 L29.0088646,9.76147881 Z M28.1918122,10.020685 C28.192739,10.02133 28.1936674,10.0219719 28.1945975,10.0226106 L28.1918122,10.020685 Z" id="Combined-Shape" fill="#4290F8" fill-rule="nonzero"></path>
            <path d="M40.1621429,16.8081837 C40.1621429,17.3068698 39.9253446,17.7766153 39.5241666,18.0747476 L38.1096863,19.1315053 L38.6239753,20.8020641 C38.774289,21.2796455 38.686651,21.7988566 38.3875525,22.2068671 C38.0897619,22.6093248 37.6176567,22.8507779 37.1187327,22.8570616 L35.3465483,22.8894386 L34.7685081,24.5458477 C34.6047182,25.0155676 34.2275116,25.3819168 33.7389657,25.5411452 C33.5818911,25.5903259 33.4171526,25.6170661 33.2498214,25.6170661 C32.9201344,25.6170661 32.5982125,25.5167756 32.3281419,25.3294806 L30.8755357,24.3252143 L29.4234031,25.3291531 C29.0096286,25.6155468 28.4832579,25.6939829 28.0030822,25.53793 C27.5246971,25.3829795 27.1471412,25.0162911 26.9831138,24.5458898 L26.4054347,22.8894364 L24.6384516,22.8571561 C24.1327313,22.8507692 23.659719,22.6086289 23.3612454,22.2030527 C23.065559,21.799679 22.977715,21.2818243 23.1251405,20.8083463 L23.6413502,19.1315979 L22.2263656,18.074745 C21.8244296,17.7744562 21.5889286,17.3055603 21.5889286,16.8081837 C21.5889286,16.3103021 21.8249567,15.8399263 22.2266235,15.5414298 L23.6410549,14.4853624 L23.1228647,12.8046109 C22.9786871,12.3296728 23.0668508,11.8154556 23.3640546,11.4100297 C23.659967,11.0101105 24.1272491,10.769402 24.6327938,10.7582387 L26.4048494,10.7266083 L26.9827375,9.07208784 C27.1468545,8.5998397 27.5261355,8.23062161 28.0056259,8.0779745 C28.4861501,7.92391935 29.0119044,8.00133856 29.4229296,8.28741619 L30.8755371,9.29168347 L32.3253837,8.28932948 C32.7392968,8.00124825 33.2660098,7.923752 33.743353,8.07730598 C34.224682,8.23054078 34.6046683,8.59959705 34.7684232,9.07080597 L35.3463837,10.7269866 L37.122961,10.7583324 C37.6232081,10.7694239 38.091577,11.010025 38.3919849,11.4160644 C38.6853697,11.8184855 38.7718704,12.3330929 38.6259309,12.8085505 L38.1097308,14.4852678 L39.5232787,15.5409567 C39.9258105,15.8407265 40.1621429,16.310508 40.1621429,16.8081837 Z M36.2209783,15.7290323 C35.8624874,15.4612983 35.711135,15.0009462 35.8419262,14.576111 L36.3693273,12.8630119 L34.5587357,12.8310739 C34.1087244,12.8231359 33.7117072,12.5381057 33.5649696,12.1176203 L32.9743244,10.4250889 L31.4897153,11.4514806 C31.1209081,11.7064573 30.6301634,11.7064573 30.2613562,11.4514806 L28.7770168,10.4252708 L28.1860074,12.1173612 C28.0392168,12.5376304 27.6423835,12.8225114 27.1925633,12.8305404 L25.3809309,12.8628702 L25.9090183,14.5756993 C26.0400455,15.0006802 25.8886766,15.4613005 25.5299836,15.7291141 L24.0846431,16.808257 L25.5301285,17.887891 C25.8885952,18.1556299 26.0399317,18.615966 25.9091452,19.0407858 L25.3820914,20.7527449 L27.1940815,20.785835 C27.6439193,20.7940499 28.0406461,21.0791203 28.1872434,21.4994776 L28.7773008,23.1914251 L30.2613562,22.1654162 C30.6301634,21.9104395 31.1209081,21.9104395 31.4897153,22.1654162 L32.9743236,23.1918084 L33.5649696,21.4992766 C33.7116256,21.0790249 34.1082971,20.794052 34.558053,20.7858352 L36.3689815,20.7527627 L35.8419262,19.0407858 C35.7111544,18.6160136 35.8624415,18.1557272 36.2208334,17.8879728 L37.6660438,16.8082597 L36.2209783,15.7290323 Z" id="Combined-Shape" fill="#FECA41"></path>
            <path d="M32.090909,17.492538 L28.9908981,14.4387953 C28.5942634,14.0480804 27.9515645,14.0477126 27.5619415,14.4315202 L27.7107858,14.2848975 C27.3182297,14.6715945 27.3184592,15.2987804 27.7078691,15.6823782 L31.3830399,19.3026961 C31.7739852,19.6878064 32.405632,19.6899744 32.806685,19.2949073 L42.2842241,9.95882412 C42.6795362,9.56941218 42.6788372,8.93736205 42.2892144,8.55355434 L42.4380586,8.70017708 C42.0455026,8.31347996 41.4066539,8.31583373 41.0186881,8.69800898 L32.090909,17.492538 Z" id="Fill-2" fill="#7AE35A"></path>
        </g>
    </g>
</svg>