<?xml version="1.0" encoding="UTF-8"?>
<svg width="28px" height="28px" viewBox="0 0 28 28" version="1.1" xmlns="http://www.w3.org/2000/svg" xmlns:xlink="http://www.w3.org/1999/xlink">
    <!-- Generator: Sketch 52.4 (67378) - http://www.bohemiancoding.com/sketch -->
    <title>ic_animals</title>
    <desc>Created with Sketch.</desc>
    <g id="Assets" stroke="none" stroke-width="1" fill="none" fill-rule="evenodd">
        <g id="ic_animals">
            <rect id="Request-/-Icon-/-Animals-Icon" x="0" y="0" width="28" height="28"></rect>
            <g id="Group-8" transform="translate(1.000000, 3.000000)" fill="#000000" fill-opacity="0.54" fill-rule="nonzero">
                <ellipse id="Oval" cx="9.5938" cy="11.3836121" rx="1.1272" ry="1.11748276"></ellipse>
                <path d="M16.6506,12.5008966 C17.2728,12.5008966 17.7776,12.0008448 17.7776,11.3836121 C17.7776,10.7663793 17.273,10.2661293 16.6506,10.2661293 C16.0276,10.2661293 15.5232,10.7663793 15.5232,11.3836121 C15.5234,12.0006466 16.0276,12.5008966 16.6506,12.5008966 Z" id="Shape"></path>
                <path d="M25.7528,8.27543966 C25.6952,8.19474138 24.3198,6.29803448 22.5096,6.29803448 C22.1568,6.29803448 21.8186,6.33392241 21.5016,6.40074138 C22.6094,5.38735345 23.4092,3.58324138 23.4092,0.710224138 C23.4092,0.450482759 23.2392,0.220681034 22.9892,0.142758621 C22.7398,0.0650344828 22.4674,0.156637931 22.3172,0.369586207 C20.1104,3.50214655 17.4066,3.51106897 17.156,3.50571552 C16.0078,2.72212931 14.6184,2.26212931 13.122,2.26212931 C11.6256,2.26212931 10.236,2.72212931 9.0878,3.50571552 C8.8378,3.5124569 6.135,3.50452586 3.9264,0.369387931 C3.7764,0.156439655 3.5046,0.0648362069 3.2544,0.142560345 C3.0044,0.220681034 2.8344,0.450284483 2.8344,0.710025862 C2.8344,3.657 3.6756,5.48074138 4.8276,6.47866379 C4.424,6.36207759 3.9782,6.29783621 3.5066,6.29783621 C1.6962,6.29783621 0.321,8.19434483 0.2634,8.27524138 C0.1164,8.48125 0.1164,8.75665517 0.2634,8.96266379 C0.3212,9.04336207 1.6962,10.9398707 3.5066,10.9398707 C4.5014,10.9398707 5.3792,10.6527672 5.9882,10.1913793 L5.9882,15.8121034 C5.9882,19.7115948 9.1884,22.8842069 13.1218,22.8842069 C17.0552,22.8842069 20.2554,19.7115948 20.2554,15.8121034 L20.2554,10.3480172 C20.847,10.7164138 21.6326,10.940069 22.5094,10.940069 C24.3196,10.940069 25.695,9.04356034 25.7526,8.96286207 C25.9,8.75705172 25.9,8.48144828 25.7528,8.27543966 Z M22.0808,2.48776724 C21.7608,4.53397414 20.854,5.83783621 19.5038,6.17986207 C19.2032,5.58463793 18.821,5.03640517 18.3706,4.55122414 C19.341,4.33431034 20.728,3.79916379 22.0808,2.48776724 Z M19.0558,9.33462931 L19.0558,15.4276466 L7.1884,15.4276466 L7.1884,9.33462931 C7.1884,6.09103448 9.8502,3.45218103 13.122,3.45218103 C16.3938,3.45218103 19.0558,6.09103448 19.0558,9.33462931 Z M4.163,2.48756897 C5.516,3.79916379 6.9032,4.33431034 7.8734,4.55122414 C7.4232,5.03640517 7.041,5.58443966 6.7402,6.17986207 C5.3902,5.83803448 4.483,4.53417241 4.163,2.48756897 Z M6.294,7.28842241 C6.2922,7.29456897 6.2906,7.30091379 6.2888,7.30706034 C6.2788,7.29694828 6.2674,7.28762931 6.2572,7.27771552 C6.2694,7.28148276 6.2818,7.28485345 6.294,7.28842241 Z M3.5068,9.75041379 C2.7362,9.75041379 1.9672,9.09907759 1.5272,8.61905172 C1.9676,8.13882759 2.7364,7.48768966 3.5068,7.48768966 C4.7392,7.48768966 5.6602,8.08509483 5.6602,8.61905172 C5.6602,9.15300862 4.7392,9.75041379 3.5068,9.75041379 Z M13.1222,21.69475 C10.126,21.69475 7.6428,19.4813966 7.2454,16.6175 L18.9988,16.6175 C18.6014,19.4813966 16.1184,21.69475 13.1222,21.69475 Z M22.5096,9.75041379 C21.277,9.75041379 20.356,9.1532069 20.356,8.61905172 C20.356,8.08489655 21.2768,7.48768966 22.5096,7.48768966 C23.279,7.48768966 24.0472,8.13724138 24.4874,8.61687069 C24.0888,9.05287931 23.3236,9.75041379 22.5096,9.75041379 Z" id="Shape"></path>
                <polygon id="Rectangle-path" points="10.575 17.6877931 11.775 17.6877931 11.775 19.4393621 10.575 19.4393621"></polygon>
                <polygon id="Rectangle-path" points="14.2416 17.6877931 15.4416 17.6877931 15.4416 19.4393621 14.2416 19.4393621"></polygon>
            </g>
        </g>
    </g>
</svg>