<?xml version="1.0" encoding="UTF-8"?>
<svg width="25px" height="25px" viewBox="0 0 25 25" version="1.1" xmlns="http://www.w3.org/2000/svg" xmlns:xlink="http://www.w3.org/1999/xlink">
    <!-- Generator: Sketch 52.4 (67378) - http://www.bohemiancoding.com/sketch -->
    <title>ic_back</title>
    <desc>Created with Sketch.</desc>
    <g id="Assets" stroke="none" stroke-width="1" fill="none" fill-rule="evenodd">
        <g id="Icone_Header_Back">
            <rect id="Rectangle" x="1" y="1" width="24" height="24"></rect>
            <polygon id="Stroke-1" stroke-opacity="0.00784313771" stroke="#000000" stroke-width="1.33333335e-11" points="1 1 24.9999985 1 24.9999985 24.9999985 1 24.9999985"></polygon>
            <path d="M20.999999,12.9999995 C20.999999,12.4477148 20.5524291,11.9999996 20.0040769,11.9999996 L8.82999969,11.9999996 L13.7120221,7.1179771 C14.1030272,6.72697201 14.1048554,6.09707511 13.7099995,5.70499988 L13.7099995,5.70499988 C13.3178773,5.3156392 12.6764817,5.32351778 12.2900529,5.70994659 L5.70994659,12.2900529 C5.31785392,12.6821456 5.32351778,13.3235173 5.70994659,13.7099461 L12.2900529,20.2900525 C12.6821456,20.6821451 13.3129242,20.6870744 13.7049994,20.2949991 L13.7049994,20.2949991 C14.09436,19.9056384 14.0940064,19.2734401 13.7032884,18.8820219 L8.82999969,13.9999995 L20.0040769,13.9999995 C20.5541095,13.9999995 20.999999,13.5561347 20.999999,12.9999995 L20.999999,12.9999995 Z" id="Fill-2" fill="#FFFFFF"></path>
        </g>
    </g>
</svg>