<?xml version="1.0" encoding="UTF-8"?>
<svg width="28px" height="28px" viewBox="0 0 28 28" version="1.1" xmlns="http://www.w3.org/2000/svg" xmlns:xlink="http://www.w3.org/1999/xlink">
    <!-- Generator: Sketch 52.4 (67378) - http://www.bohemiancoding.com/sketch -->
    <title>ic_call</title>
    <desc>Created with Sketch.</desc>
    <g id="Assets" stroke="none" stroke-width="1" fill="none" fill-rule="evenodd">
        <g id="ic_call">
            <rect id="Request-/-Icon-/-Animals-Icon" x="0" y="0" width="28" height="28"></rect>
            <path d="M8.61999966,12.7899994 C10.0599992,15.6199992 12.3799997,17.9299995 15.2099994,19.3800001 L17.4099991,17.1800005 C17.6799995,16.9100001 18.0799991,16.8200009 18.4299995,16.9400007 C19.5500002,17.3100006 20.7599993,17.5100003 21.999999,17.5100003 C22.5499981,17.5100003 22.9999989,17.9600001 22.9999989,18.5100013 L22.9999989,21.999999 C22.9999989,22.5499981 22.5499981,22.9999989 21.999999,22.9999989 C12.6099991,22.9999989 5,15.3899987 5,5.99999994 C5,5.45000001 5.45000001,5 5.99999994,5 L9.49999973,5 C10.0499999,5 10.4999997,5.45000001 10.4999997,5.99999994 C10.4999997,7.24999986 10.6999995,8.44999959 11.0699993,9.56999942 C11.179999,9.91999929 11.0999991,10.3099991 10.8199993,10.5899998 L8.61999966,12.7899994 Z" id="Fill-2" fill="#07C2DC"></path>
        </g>
    </g>
</svg>