<?xml version="1.0" encoding="UTF-8"?>
<svg width="41px" height="41px" viewBox="0 0 41 41" version="1.1" xmlns="http://www.w3.org/2000/svg" xmlns:xlink="http://www.w3.org/1999/xlink">
    <!-- Generator: Sketch 52.4 (67378) - http://www.bohemiancoding.com/sketch -->
    <title>ic_clock</title>
    <desc>Created with Sketch.</desc>
    <g id="Assets" stroke="none" stroke-width="1" fill="none" fill-rule="evenodd">
        <g id="ic_clock">
            <path d="M20.4834995,4 C11.3755004,4 4,11.392 4,20.5 C4,29.6080007 11.3755004,37 20.4834995,37 C29.6080007,37 37,29.6080007 37,20.5 C37,11.3919992 29.6080007,4 20.4834995,4 Z" id="Fill-2" fill="#D7F7DC"></path>
            <path d="M32.3553391,9.02081528 L9.02081528,32.3553391 C2.38190232,25.7164261 2.22361108,15.1109127 8.66726189,8.66726189 C15.1109127,2.22361108 25.7164261,2.38190232 32.3553391,9.02081528 Z" id="Oval" fill-opacity="0.0163609601" fill="#000000"></path>
            <path d="M20.4834995,4 C11.3755004,4 4,11.392 4,20.5 C4,29.6080007 11.3755004,37 20.4834995,37 C29.6080007,37 37,29.6080007 37,20.5 C37,11.3919992 29.6080007,4 20.4834995,4 Z M20.5,33.7 C13.2069999,33.7 7.3,27.793 7.3,20.5 C7.3,13.2069999 13.2069999,7.3 20.5,7.3 C27.793,7.3 33.7,13.2069999 33.7,20.5 C33.7,27.793 27.793,33.7 20.5,33.7 Z" id="Fill-2-Copy" fill="#4CD964"></path>
            <polygon id="Path" fill="#4CD964" points="21.325 12.25 18.85 12.25 18.85 22.15 27.5125 27.3474993 28.75 25.318 21.325 20.9125"></polygon>
        </g>
    </g>
</svg>