<?xml version="1.0" encoding="UTF-8"?>
<svg width="24px" height="24px" viewBox="0 0 24 24" version="1.1" xmlns="http://www.w3.org/2000/svg" xmlns:xlink="http://www.w3.org/1999/xlink">
    <!-- Generator: Sketch 52.4 (67378) - http://www.bohemiancoding.com/sketch -->
    <title>ic_date</title>
    <desc>Created with Sketch.</desc>
    <g id="Assets" stroke="none" stroke-width="1" fill="none" fill-rule="evenodd">
        <g id="ic_date">
            <rect id="Rectangle" x="0" y="0" width="24" height="24"></rect>
            <path d="M15.75,14.2814912 L18.25,14.2814912 C18.595,14.2814912 18.875,14.0154995 18.875,13.687166 L18.875,11.9059717 C18.875,11.5782319 18.595,11.3122402 18.25,11.3122402 L15.75,11.3122402 C15.404375,11.3122402 15.125,11.5782319 15.125,11.9059717 L15.125,13.687166 C15.125,14.0154995 15.404375,14.2814912 15.75,14.2814912 L15.75,14.2814912 Z M15.75,18.4376113 L18.25,18.4376113 C18.595,18.4376113 18.875,18.1716196 18.875,17.8432861 L18.875,16.0626855 C18.875,15.7343521 18.595,15.4689541 18.25,15.4689541 L15.75,15.4689541 C15.404375,15.4689541 15.125,15.7343521 15.125,16.0626855 L15.125,17.8432861 C15.125,18.1716196 15.404375,18.4376113 15.75,18.4376113 L15.75,18.4376113 Z M10.75,14.2814912 L13.25,14.2814912 C13.595,14.2814912 13.875,14.0154995 13.875,13.687166 L13.875,11.9059717 C13.875,11.5782319 13.595,11.3122402 13.25,11.3122402 L10.75,11.3122402 C10.404375,11.3122402 10.125,11.5782319 10.125,11.9059717 L10.125,13.687166 C10.125,14.0154995 10.404375,14.2814912 10.75,14.2814912 L10.75,14.2814912 Z M10.75,18.4376113 L13.25,18.4376113 C13.595,18.4376113 13.875,18.1716196 13.875,17.8432861 L13.875,16.0626855 C13.875,15.7343521 13.595,15.4689541 13.25,15.4689541 L10.75,15.4689541 C10.404375,15.4689541 10.125,15.7343521 10.125,16.0626855 L10.125,17.8432861 C10.125,18.1716196 10.404375,18.4376113 10.75,18.4376113 L10.75,18.4376113 Z M5.75,14.2814912 L8.25,14.2814912 C8.595,14.2814912 8.875,14.0154995 8.875,13.687166 L8.875,11.9059717 C8.875,11.5782319 8.595,11.3122402 8.25,11.3122402 L5.75,11.3122402 C5.404375,11.3122402 5.125,11.5782319 5.125,11.9059717 L5.125,13.687166 C5.125,14.0154995 5.404375,14.2814912 5.75,14.2814912 L5.75,14.2814912 Z M5.75,18.4376113 L8.25,18.4376113 C8.595,18.4376113 8.875,18.1716196 8.875,17.8432861 L8.875,16.0626855 C8.875,15.7343521 8.595,15.4689541 8.25,15.4689541 L5.75,15.4689541 C5.404375,15.4689541 5.125,15.7343521 5.125,16.0626855 L5.125,17.8432861 C5.125,18.1716196 5.404375,18.4376113 5.75,18.4376113 L5.75,18.4376113 Z M20.75,8.93731446 L3.25,8.93731446 L3.25,20.2182119 C3.25,20.5465454 3.529375,20.8119434 3.875,20.8119434 L20.125,20.8119434 C20.47,20.8119434 20.75,20.5465454 20.75,20.2182119 L20.75,8.93731446 Z M22,8.93731446 L22,20.8119434 C22,21.4680166 21.44,22 20.75,22 L3.25,22 C2.559375,22 2,21.4680166 2,20.8119434 L2,8.93731446 L2,4.18805662 C2,3.53198338 2.559375,3 3.25,3 L20.75,3 C21.44,3 22,3.53198338 22,4.18805662 L22,8.93731446 Z M9.5,6.56298241 C9.845,6.56298241 10.125,6.29699072 10.125,5.96925096 C10.125,5.64091747 9.845,5.37551952 9.5,5.37551952 C9.154375,5.37551952 8.875,5.64091747 8.875,5.96925096 C8.875,6.29699072 9.154375,6.56298241 9.5,6.56298241 Z M14.5,6.56298241 C14.845,6.56298241 15.125,6.29699072 15.125,5.96925096 C15.125,5.64091747 14.845,5.37551952 14.5,5.37551952 C14.155,5.37551952 13.875,5.64091747 13.875,5.96925096 C13.875,6.29699072 14.155,6.56298241 14.5,6.56298241 Z" id="Combined-Shape" fill-opacity="0.38" fill="#000000"></path>
        </g>
    </g>
</svg>