<?xml version="1.0" encoding="UTF-8"?>
<svg width="18px" height="18px" viewBox="0 0 18 18" version="1.1" xmlns="http://www.w3.org/2000/svg" xmlns:xlink="http://www.w3.org/1999/xlink">
    <!-- Generator: Sketch 52.4 (67378) - http://www.bohemiancoding.com/sketch -->
    <title>ic_destiny_point</title>
    <desc>Created with Sketch.</desc>
    <g id="Assets" stroke="none" stroke-width="1" fill="none" fill-rule="evenodd">
        <g id="ic_destiny_point" fill="#23AECA">
            <path d="M9.00111167,10.1363165 C7.77827803,10.1363165 6.78778278,9.11990125 6.78778278,7.85223734 C6.78778278,6.59599383 7.77827803,5.57957862 9.00111167,5.57957862 C10.2239453,5.57957862 11.2144406,6.59599383 11.2144406,7.85223734 C11.2144406,9.11990125 10.2239453,10.1363165 9.00111167,10.1363165 L9.00111167,10.1363165 Z M9,1 C5.31927075,1 2.33333333,3.70663375 2.33333333,7.05280965 C2.33333333,7.10991163 2.36557167,8.66308542 2.93919182,9.77086379 C4.5811239,13.2084029 8.99444167,17.0113946 9,16.9999742 C9.00778167,17.0113946 13.4010894,13.2312437 15.0508032,9.79370459 C15.5410483,8.9828565 15.6666667,7.178434 15.6666667,7.05280965 C15.6666667,3.70663375 12.6829526,1 9,1 L9,1 Z" id="Fill-33"></path>
        </g>
    </g>
</svg>