<?xml version="1.0" encoding="UTF-8"?>
<svg width="40px" height="41px" viewBox="0 0 40 41" version="1.1" xmlns="http://www.w3.org/2000/svg" xmlns:xlink="http://www.w3.org/1999/xlink">
    <!-- Generator: Sketch 52.4 (67378) - http://www.bohemiancoding.com/sketch -->
    <title>ic_error-empty</title>
    <desc>Created with Sketch.</desc>
    <g id="Assets" stroke="none" stroke-width="1" fill="none" fill-rule="evenodd">
        <g id="ic_error-empty">
            <rect id="bounds" x="0" y="0.928616524" width="40" height="40"></rect>
            <path d="M15.7898329,19.0397276 L11.3453884,14.5952832 L8.88888889,14.5952832 L8.88888889,12.1387837 L0.107233047,3.35712783 L2.46425565,1.00010522 L39.9642557,38.5001052 L37.607233,40.8571278 L29.1231662,32.373061 L8.88888889,32.373061 L8.88888889,27.9286165 L24.6787217,27.9286165 L20.2342773,23.4841721 L8.88888889,23.4841721 L8.88888889,19.0397276 L15.7898329,19.0397276 Z M25.1705447,19.0397276 L40,19.0397276 L40,23.4841721 L29.6149892,23.4841721 L25.1705447,19.0397276 Z M34.0594336,27.9286165 L40,27.9286165 L40,32.373061 L38.5038781,32.373061 L34.0594336,27.9286165 Z M16.2816558,10.1508387 L40,10.1508387 L40,14.5952832 L20.7261003,14.5952832 L16.2816558,10.1508387 Z M0,23.4841721 L0,19.0397276 L4.44444444,19.0397276 L4.44444444,23.4841721 L0,23.4841721 Z M0,32.373061 L0,27.9286165 L4.44444444,27.9286165 L4.44444444,32.373061 L0,32.373061 Z M0,14.5952832 L0,10.1508387 L4.44444444,10.1508387 L4.44444444,14.5952832 L0,14.5952832 Z" id="Shape" fill-opacity="0.26" fill="#000000"></path>
        </g>
    </g>
</svg>