<?xml version="1.0" encoding="UTF-8"?>
<svg width="40px" height="40px" viewBox="0 0 40 40" version="1.1" xmlns="http://www.w3.org/2000/svg" xmlns:xlink="http://www.w3.org/1999/xlink">
    <!-- Generator: Sketch 52.4 (67378) - http://www.bohemiancoding.com/sketch -->
    <title>ic_error-internet</title>
    <desc>Created with Sketch.</desc>
    <g id="Assets" stroke="none" stroke-width="1" fill="none" fill-rule="evenodd">
        <g id="ic_error-internet">
            <rect id="bounds" x="0" y="0" width="40" height="40"></rect>
            <path d="M27.6327046,29.6206495 L20,39.797589 L0,13.1309223 C2.14852098,11.5032549 4.52594159,10.1299204 7.07265023,9.06059515 L0.571488698,2.55943362 L2.9285113,0.202411016 L37.9285113,35.202411 L35.5714887,37.5594336 L27.6327046,29.6206495 Z M9.66516396,11.6531089 C7.98561466,12.2784859 6.37057503,13.0532976 4.83333333,13.9642557 L8.16666667,18.4642557 C10.003031,17.4149046 11.9770374,16.5949573 14.0646136,16.0525586 L9.66516396,11.6531089 Z M31.6530097,24.2602427 L22.8625392,15.4697723 C26.1018521,15.8626283 29.1180566,16.9126689 31.8333333,18.4642557 L35.1666667,13.9642557 C30.6666667,11.297589 25.5,9.79758898 20,9.79758898 C19.094109,9.79758898 18.1972608,9.8382818 17.310945,9.91817802 L14.3375577,6.94479076 C16.18077,6.62913894 18.0738967,6.46425565 20,6.46425565 C27.5,6.46425565 34.5,8.96425565 40,13.1309223 L31.6530097,24.2602427 Z" id="Shape" fill-opacity="0.26" fill="#000000"></path>
        </g>
    </g>
</svg>