<?xml version="1.0" encoding="UTF-8"?>
<svg width="30px" height="31px" viewBox="0 0 30 31" version="1.1" xmlns="http://www.w3.org/2000/svg" xmlns:xlink="http://www.w3.org/1999/xlink">
    <!-- Generator: Sketch 52.4 (67378) - http://www.bohemiancoding.com/sketch -->
    <title>ic_fescal-note</title>
    <desc>Created with Sketch.</desc>
    <g id="Assets" stroke="none" stroke-width="1" fill="none" fill-rule="evenodd">
        <g id="ic_fescal-note">
            <rect id="Request-/-Icon-/-Animals-Icon" x="0" y="0" width="30" height="30"></rect>
            <g id="Group" transform="translate(6.000000, 3.000000)" fill="#000000" fill-opacity="0.54" fill-rule="nonzero">
                <path d="M0.836,23.7677419 C0.684,23.7677419 0.532,23.7677419 0.456,23.6903226 C0.228,23.5354839 0.076,23.3032258 0.076,22.9935484 L0.076,1.31612903 C0.076,1.00645161 0.228,0.774193548 0.456,0.619354839 C0.684,0.464516129 0.988,0.464516129 1.216,0.619354839 L3.648,1.93548387 L6.08,0.619354839 C6.308,0.464516129 6.612,0.464516129 6.84,0.619354839 L9.272,1.93548387 L11.704,0.619354839 C11.932,0.464516129 12.236,0.464516129 12.464,0.619354839 L14.896,1.93548387 L17.328,0.619354839 C17.556,0.464516129 17.86,0.464516129 18.088,0.619354839 C18.316,0.774193548 18.468,1.00645161 18.468,1.31612903 L18.468,22.9935484 C18.468,23.3032258 18.316,23.5354839 18.088,23.6903226 C17.86,23.8451613 17.556,23.8451613 17.328,23.6903226 L14.896,22.3741935 L12.464,23.6903226 C12.236,23.8451613 11.932,23.8451613 11.704,23.6903226 L9.272,22.3741935 L6.84,23.6903226 C6.612,23.8451613 6.308,23.8451613 6.08,23.6903226 L3.648,22.3741935 L1.216,23.6903226 C1.14,23.7677419 0.988,23.7677419 0.836,23.7677419 Z M3.648,20.6709677 C3.8,20.6709677 3.876,20.6709677 4.028,20.7483871 L6.46,22.0645161 L8.892,20.7483871 C9.12,20.5935484 9.424,20.5935484 9.652,20.7483871 L12.084,22.0645161 L14.516,20.7483871 C14.744,20.5935484 15.048,20.5935484 15.276,20.7483871 L16.948,21.6774194 L16.948,2.63225806 L15.276,3.56129032 C15.048,3.71612903 14.744,3.71612903 14.516,3.56129032 L12.084,2.24516129 L9.652,3.56129032 C9.424,3.71612903 9.12,3.71612903 8.892,3.56129032 L6.46,2.24516129 L4.028,3.56129032 C3.8,3.71612903 3.496,3.71612903 3.268,3.56129032 L1.596,2.63225806 L1.596,21.6774194 L3.268,20.7483871 C3.42,20.6709677 3.496,20.6709677 3.648,20.6709677 Z" id="Shape"></path>
                <path d="M11.02,7.04516129 L3.724,7.04516129 C3.268,7.04516129 2.964,6.73548387 2.964,6.27096774 C2.964,5.80645161 3.268,5.49677419 3.724,5.49677419 L11.02,5.49677419 C11.476,5.49677419 11.78,5.80645161 11.78,6.27096774 C11.78,6.73548387 11.4,7.04516129 11.02,7.04516129 Z" id="Shape"></path>
                <path d="M11.02,10.1419355 L3.724,10.1419355 C3.268,10.1419355 2.964,9.83225806 2.964,9.36774194 C2.964,8.90322581 3.268,8.59354839 3.724,8.59354839 L11.02,8.59354839 C11.476,8.59354839 11.78,8.90322581 11.78,9.36774194 C11.78,9.83225806 11.4,10.1419355 11.02,10.1419355 Z" id="Shape"></path>
                <path d="M11.02,13.2387097 L3.724,13.2387097 C3.268,13.2387097 2.964,12.9290323 2.964,12.4645161 C2.964,12 3.268,11.6903226 3.724,11.6903226 L11.02,11.6903226 C11.476,11.6903226 11.78,12 11.78,12.4645161 C11.78,12.9290323 11.4,13.2387097 11.02,13.2387097 Z" id="Shape"></path>
                <path d="M14.516,7.04516129 L13.908,7.04516129 C13.452,7.04516129 13.148,6.73548387 13.148,6.27096774 C13.148,5.80645161 13.452,5.49677419 13.908,5.49677419 L14.516,5.49677419 C14.972,5.49677419 15.276,5.80645161 15.276,6.27096774 C15.276,6.73548387 14.972,7.04516129 14.516,7.04516129 Z" id="Shape"></path>
                <path d="M14.516,10.1419355 L13.908,10.1419355 C13.452,10.1419355 13.148,9.83225806 13.148,9.36774194 C13.148,8.90322581 13.452,8.59354839 13.908,8.59354839 L14.516,8.59354839 C14.972,8.59354839 15.276,8.90322581 15.276,9.36774194 C15.276,9.83225806 14.972,10.1419355 14.516,10.1419355 Z" id="Shape"></path>
                <path d="M14.516,13.2387097 L13.908,13.2387097 C13.452,13.2387097 13.148,12.9290323 13.148,12.4645161 C13.148,12 13.452,11.6903226 13.908,11.6903226 L14.516,11.6903226 C14.972,11.6903226 15.276,12 15.276,12.4645161 C15.276,12.9290323 14.972,13.2387097 14.516,13.2387097 Z" id="Shape"></path>
                <path d="M15.048,16.3354839 L7.6,16.3354839 C7.144,16.3354839 6.84,16.0258065 6.84,15.5612903 C6.84,15.0967742 7.144,14.7870968 7.6,14.7870968 L15.048,14.7870968 C15.504,14.7870968 15.808,15.0967742 15.808,15.5612903 C15.808,16.0258065 15.504,16.3354839 15.048,16.3354839 Z" id="Shape"></path>
                <path d="M15.048,19.4322581 L7.6,19.4322581 C7.144,19.4322581 6.84,19.1225806 6.84,18.6580645 C6.84,18.1935484 7.144,17.883871 7.6,17.883871 L15.048,17.883871 C15.504,17.883871 15.808,18.1935484 15.808,18.6580645 C15.808,19.1225806 15.504,19.4322581 15.048,19.4322581 Z" id="Shape"></path>
            </g>
        </g>
    </g>
</svg>