<?xml version="1.0" encoding="UTF-8"?>
<svg width="40px" height="40px" viewBox="0 0 40 40" version="1.1" xmlns="http://www.w3.org/2000/svg" xmlns:xlink="http://www.w3.org/1999/xlink">
    <!-- Generator: Sketch 52.4 (67378) - http://www.bohemiancoding.com/sketch -->
    <title>ic_fiscalnote</title>
    <desc>Created with Sketch.</desc>
    <g id="Assets" stroke="none" stroke-width="1" fill="none" fill-rule="evenodd" fill-opacity="0.24">
        <g id="ic_fiscalnote" fill="#000000" fill-rule="nonzero">
            <g id="Group" transform="translate(8.000000, 5.000000)">
                <path d="M1.1,30.7 C0.9,30.7 0.7,30.7 0.6,30.6 C0.3,30.4 0.1,30.1 0.1,29.7 L0.1,1.7 C0.1,1.3 0.3,1 0.6,0.8 C0.9,0.6 1.3,0.6 1.6,0.8 L4.8,2.5 L8,0.8 C8.3,0.6 8.7,0.6 9,0.8 L12.2,2.5 L15.4,0.8 C15.7,0.6 16.1,0.6 16.4,0.8 L19.6,2.5 L22.8,0.8 C23.1,0.6 23.5,0.6 23.8,0.8 C24.1,1 24.3,1.3 24.3,1.7 L24.3,29.7 C24.3,30.1 24.1,30.4 23.8,30.6 C23.5,30.8 23.1,30.8 22.8,30.6 L19.6,28.9 L16.4,30.6 C16.1,30.8 15.7,30.8 15.4,30.6 L12.2,28.9 L9,30.6 C8.7,30.8 8.3,30.8 8,30.6 L4.8,28.9 L1.6,30.6 C1.5,30.7 1.3,30.7 1.1,30.7 Z M4.8,26.7 C5,26.7 5.1,26.7 5.3,26.8 L8.5,28.5 L11.7,26.8 C12,26.6 12.4,26.6 12.7,26.8 L15.9,28.5 L19.1,26.8 C19.4,26.6 19.8,26.6 20.1,26.8 L22.3,28 L22.3,3.4 L20.1,4.6 C19.8,4.8 19.4,4.8 19.1,4.6 L15.9,2.9 L12.7,4.6 C12.4,4.8 12,4.8 11.7,4.6 L8.5,2.9 L5.3,4.6 C5,4.8 4.6,4.8 4.3,4.6 L2.1,3.4 L2.1,28 L4.3,26.8 C4.5,26.7 4.6,26.7 4.8,26.7 Z" id="Shape"></path>
                <path d="M14.5,9.1 L4.9,9.1 C4.3,9.1 3.9,8.7 3.9,8.1 C3.9,7.5 4.3,7.1 4.9,7.1 L14.5,7.1 C15.1,7.1 15.5,7.5 15.5,8.1 C15.5,8.7 15,9.1 14.5,9.1 Z" id="Shape"></path>
                <path d="M14.5,13.1 L4.9,13.1 C4.3,13.1 3.9,12.7 3.9,12.1 C3.9,11.5 4.3,11.1 4.9,11.1 L14.5,11.1 C15.1,11.1 15.5,11.5 15.5,12.1 C15.5,12.7 15,13.1 14.5,13.1 Z" id="Shape"></path>
                <path d="M14.5,17.1 L4.9,17.1 C4.3,17.1 3.9,16.7 3.9,16.1 C3.9,15.5 4.3,15.1 4.9,15.1 L14.5,15.1 C15.1,15.1 15.5,15.5 15.5,16.1 C15.5,16.7 15,17.1 14.5,17.1 Z" id="Shape"></path>
                <path d="M19.1,9.1 L18.3,9.1 C17.7,9.1 17.3,8.7 17.3,8.1 C17.3,7.5 17.7,7.1 18.3,7.1 L19.1,7.1 C19.7,7.1 20.1,7.5 20.1,8.1 C20.1,8.7 19.7,9.1 19.1,9.1 Z" id="Shape"></path>
                <path d="M19.1,13.1 L18.3,13.1 C17.7,13.1 17.3,12.7 17.3,12.1 C17.3,11.5 17.7,11.1 18.3,11.1 L19.1,11.1 C19.7,11.1 20.1,11.5 20.1,12.1 C20.1,12.7 19.7,13.1 19.1,13.1 Z" id="Shape"></path>
                <path d="M19.1,17.1 L18.3,17.1 C17.7,17.1 17.3,16.7 17.3,16.1 C17.3,15.5 17.7,15.1 18.3,15.1 L19.1,15.1 C19.7,15.1 20.1,15.5 20.1,16.1 C20.1,16.7 19.7,17.1 19.1,17.1 Z" id="Shape"></path>
                <path d="M19.8,21.1 L10,21.1 C9.4,21.1 9,20.7 9,20.1 C9,19.5 9.4,19.1 10,19.1 L19.8,19.1 C20.4,19.1 20.8,19.5 20.8,20.1 C20.8,20.7 20.4,21.1 19.8,21.1 Z" id="Shape"></path>
                <path d="M19.8,25.1 L10,25.1 C9.4,25.1 9,24.7 9,24.1 C9,23.5 9.4,23.1 10,23.1 L19.8,23.1 C20.4,23.1 20.8,23.5 20.8,24.1 C20.8,24.7 20.4,25.1 19.8,25.1 Z" id="Shape"></path>
            </g>
        </g>
    </g>
</svg>