<?xml version="1.0" encoding="UTF-8"?>
<svg width="24px" height="24px" viewBox="0 0 24 24" version="1.1" xmlns="http://www.w3.org/2000/svg" xmlns:xlink="http://www.w3.org/1999/xlink">
    <!-- Generator: Sketch 52.4 (67378) - http://www.bohemiancoding.com/sketch -->
    <title>ic_login_email</title>
    <desc>Created with Sketch.</desc>
    <g id="Assets" stroke="none" stroke-width="1" fill="none" fill-rule="evenodd">
        <g id="ic_login_email">
            <polygon id="Base-/-Icon-White" fill-opacity="0.01" fill="#FFFFFF" points="0 0 24 0 24 24 0 24"></polygon>
            <g id="icon" transform="translate(1.714286, 4.285714)" fill="#07C2DC">
                <path d="M18,14.9142857 L18,14.4 L2.57142857,14.4 C2.3121765,14.3593868 1.87924604,14.1807142 1.54285714,13.8857143 C1.26504403,13.543005 1.08473668,13.149545 1.02857143,12.8571429 L1.02857143,2.57142857 C1.08473668,2.27902638 1.26504403,1.85230293 1.54285714,1.54285714 C1.9129934,1.24690684 2.3121765,1.0691846 2.57142857,1.02857143 L18,1.02857143 C18.2592521,1.0691846 18.6921825,1.24690684 19.0285714,1.54285714 C19.3063845,1.88556645 19.4876561,2.27902638 19.5428571,2.57142857 L19.5428571,12.8571429 C19.4876561,13.149545 19.3063845,13.5762685 19.0285714,13.8857143 C18.6584352,14.1807142 18.2592521,14.3593868 18,14.4 L18,15.4285714 C19.3439888,15.4285714 20.5714286,14.1807142 20.5714286,12.8571429 L20.5714286,2.57142857 C20.5714286,1.20984178 19.3063845,0 18,0 L2.57142857,0 C1.22743982,0 0,1.24690684 0,2.57142857 L0,12.8571429 C0,14.2177793 1.26504403,15.4285714 2.57142857,15.4285714 L18,15.4285714 L18,14.9142857 Z" id="Fill-1"></path>
                <path d="M7.21215584,4.62857143 L13.8744935,4.62857143 C14.1559481,4.62857143 14.4,4.38902857 14.4,4.11474286 C14.4,3.83954286 14.1559481,3.6 13.8744935,3.6 L7.21215584,3.6 C6.9307013,3.6 6.68571429,3.83954286 6.68571429,4.11474286 C6.68571429,4.38902857 6.9307013,4.62857143 7.21215584,4.62857143" id="Fill-2"></path>
                <path d="M7.23722449,6.68571429 L11.2780408,6.68571429 C11.572898,6.68571429 11.8285714,6.44617143 11.8285714,6.17188571 C11.8285714,5.89668571 11.572898,5.65714286 11.2780408,5.65714286 L7.23722449,5.65714286 C6.94236735,5.65714286 6.68571429,5.89668571 6.68571429,6.17188571 C6.68571429,6.44617143 6.94236735,6.68571429 7.23722449,6.68571429" id="Fill-3"></path>
                <path d="M12.8576,6.68571429 L13.8861714,6.68571429 C14.1613714,6.68571429 14.4,6.44617143 14.4,6.17188571 C14.4,5.89668571 14.1613714,5.65714286 13.8861714,5.65714286 L12.8576,5.65714286 C12.5824,5.65714286 12.3428571,5.89668571 12.3428571,6.17188571 C12.3428571,6.44617143 12.5824,6.68571429 12.8576,6.68571429" id="Fill-4"></path>
                <path d="M19.6820667,3.74806282 L11.5742364,11.2889236 C11.2513454,11.6153931 10.7814238,11.7640533 10.3124631,11.7640533 C10.0232066,11.7640533 9.77142857,12.01765 9.77142857,12.3101122 C9.77142857,12.6025744 10.0232066,12.8571429 10.3124631,12.8571429 C11.0332018,12.8571429 11.7539406,12.6025744 12.2949751,12.0905227 L20.4028054,4.54869023 C20.620949,4.32812904 20.620949,4.00165961 20.4402838,3.78207006 C20.2605796,3.56539541 19.9002103,3.52750163 19.6820667,3.74806282 L19.6820667,3.74806282 Z" id="Fill-5"></path>
                <path d="M0.149804198,4.54835449 L8.27198643,12.0904917 C8.81397867,12.5986774 9.57353797,12.8571429 10.2580078,12.8571429 C10.5477763,12.8571429 10.8,12.6025641 10.8,12.3100901 C10.8,12.0176161 10.5477763,11.7640091 10.2580078,11.7640091 C9.78821696,11.7640091 9.31746348,11.5813343 8.99400096,11.2888603 L0.909363493,3.74769473 C0.691796446,3.52712463 0.32982649,3.56501993 0.149804198,3.78559004 C-0.0302180941,4.00130177 -0.0687255362,4.32778439 0.149804198,4.54835449 L0.149804198,4.54835449 Z" id="Fill-6"></path>
            </g>
        </g>
    </g>
</svg>