<?xml version="1.0" encoding="UTF-8"?>
<svg width="24px" height="24px" viewBox="0 0 24 24" version="1.1" xmlns="http://www.w3.org/2000/svg" xmlns:xlink="http://www.w3.org/1999/xlink">
    <!-- Generator: Sketch 52.4 (67378) - http://www.bohemiancoding.com/sketch -->
    <title>ic_login_password</title>
    <desc>Created with Sketch.</desc>
    <g id="Assets" stroke="none" stroke-width="1" fill="none" fill-rule="evenodd">
        <g id="ic_login_password">
            <rect id="Base-/-Icon-White" fill-opacity="0.01" fill="#FFFFFF" x="0.214285714" y="0" width="23.5714286" height="24"></rect>
            <path d="M17.5178127,10.8945678 L17.2442697,10.8945678 L17.2442697,8.5848957 C17.2442697,5.64080718 14.8913606,3.24511791 11.9998451,3.24511791 C9.10832958,3.24511791 6.75542047,5.64080718 6.75542047,8.5848957 L6.75542047,9.78657753 C6.75542047,10.0465475 6.96144135,10.2563143 7.21676904,10.2563143 C7.47178268,10.2563143 7.67780356,10.0465475 7.67780356,9.78657753 L7.67780356,8.5848957 C7.67780356,6.15786932 9.6174147,4.18331229 12.0011013,4.18331229 C14.3847879,4.18331229 16.3243991,6.15786932 16.3243991,8.5848957 L16.3243991,10.8945678 L6.48313374,10.8945678 C6.01330566,10.8945678 5.62921491,11.2603805 5.58147837,11.72628 C5.57519725,11.7576171 5.57142857,11.7889542 5.57142857,11.8212506 L5.57142857,17.9342234 C5.57142857,19.4895668 6.81414899,20.7548821 8.34171838,20.7548821 L15.6582859,20.7548821 C17.1855412,20.7548821 18.4282616,19.4895668 18.4282616,17.9342234 L18.4282616,11.8212506 C18.4295178,11.7876752 18.4270054,11.7563381 18.4197821,11.72628 C18.3717315,11.2603805 17.988897,10.8945678 17.5178127,10.8945678 Z M15.659228,19.8154086 L8.3429746,19.8154086 C7.3232341,19.8154086 6.49412571,18.9712256 6.49412571,17.9332641 L6.49412571,11.8314831 L17.5080769,11.8314831 L17.5080769,17.9332641 C17.5080769,18.9712256 16.6789685,19.8154086 15.659228,19.8154086 L15.659228,19.8154086 Z M12.0011013,13.8687144 C10.8183656,13.8687144 9.85672553,14.8478389 9.85672553,16.0520788 C9.85672553,17.255999 10.8183656,18.2354433 12.0011013,18.2354433 C13.183837,18.2354433 14.1454771,17.255999 14.1454771,16.0520788 C14.1454771,14.8491179 13.183837,13.8687144 12.0011013,13.8687144 L12.0011013,13.8687144 Z M12.0011013,17.2985279 C11.3265086,17.2985279 10.7778524,16.7402159 10.7778524,16.0533579 C10.7778524,15.3661801 11.3265086,14.8078681 12.0011013,14.8078681 C12.675694,14.8078681 13.2243502,15.3661801 13.2243502,16.0533579 C13.2243502,16.7402159 12.675694,17.2985279 12.0011013,17.2985279 L12.0011013,17.2985279 Z" id="icon" fill="#07C2DC"></path>
        </g>
    </g>
</svg>