<?xml version="1.0" encoding="UTF-8"?>
<svg width="148px" height="32px" viewBox="0 0 148 32" version="1.1" xmlns="http://www.w3.org/2000/svg" xmlns:xlink="http://www.w3.org/1999/xlink">
    <!-- Generator: Sketch 52.5 (67469) - http://www.bohemiancoding.com/sketch -->
    <title>Logo</title>
    <desc>Created with Sketch.</desc>
    <g id="Assets" stroke="none" stroke-width="1" fill="none" fill-rule="evenodd">
        <g id="Logo" transform="translate(-1.000000, 0.000000)">
            <g id="Group" transform="translate(23.543887, 16.000000) rotate(-270.000000) translate(-23.543887, -16.000000) translate(7.543887, -7.500000)">
                <path d="M15.8909512,38.7178753 C20.8571139,38.7178753 24.8727931,34.5496115 24.8727931,29.4209487 C24.8727931,24.292286 20.8571139,20.1240221 15.8909512,20.1240221 C10.9247885,20.1240221 6.9091092,24.292286 6.9091092,29.4209487 C6.9091092,34.5496115 10.9247885,38.7178753 15.8909512,38.7178753 Z M15.8909512,45.9487605 C7.11462117,45.9487605 1.36212786e-13,38.5845572 1.36212786e-13,29.5003519 C1.36212786e-13,20.4161467 7.11462117,13.0519433 15.8909512,13.0519433 C24.6672811,13.0519433 31.7819023,20.4161467 31.7819023,29.5003519 C31.7819023,38.5845572 24.6672811,45.9487605 15.8909512,45.9487605 Z" id="Oval-Copy" fill="#ABC7FD" fill-rule="nonzero" opacity="0.873245018"></path>
                <ellipse id="Oval-2" fill="#ABC7FD" opacity="0.873245018" cx="15.8909512" cy="29.5850135" rx="2.76364368" ry="2.8605928"></ellipse>
                <path d="M31.9245904,-0.0578793607 C31.9245904,9.02632587 24.8099693,16.3905292 16.0336393,16.3905292 C7.2573093,16.3905292 0.142688125,9.02632587 0.142688125,-0.0578793607 L6.98802093,-0.0578793607 C6.98802093,5.09268486 11.0322139,9.27874884 16.0336393,9.27874884 C21.0350647,9.27874884 25.0792576,5.09268486 25.0792576,-0.0578793607 L31.9245904,-0.0578793607 Z M25.0792576,-0.0578793607 L31.9245904,-0.0578793607 C31.9245904,9.02632587 24.8099693,16.3905292 16.0336393,16.3905292 C7.2573093,16.3905292 0.142688125,9.02632587 0.142688125,-0.0578793607 L6.98802093,-0.0578793607 C6.98802093,5.09268486 11.0322139,9.27874884 16.0336393,9.27874884 C21.0350647,9.27874884 25.0792576,5.09268486 25.0792576,-0.0578793607 Z" id="Oval" fill="#276EFC" fill-rule="nonzero"></path>
                <path d="M31.7819023,13.2396348 C31.7819023,22.32384 24.6672811,29.6880434 15.8909512,29.6880434 C7.11462117,29.6880434 1.36212786e-13,22.32384 1.36212786e-13,13.2396348 L6.8453328,13.2396348 C6.8453328,18.390199 10.8895258,22.576263 15.8909512,22.576263 C20.8923765,22.576263 24.9365695,18.390199 24.9365695,13.2396348 L31.7819023,13.2396348 Z M24.9365695,13.2396348 L31.7819023,13.2396348 C31.7819023,22.32384 24.6672811,29.6880434 15.8909512,29.6880434 C7.11462117,29.6880434 1.36212786e-13,22.32384 1.36212786e-13,13.2396348 L6.8453328,13.2396348 C6.8453328,18.390199 10.8895258,22.576263 15.8909512,22.576263 C20.8923765,22.576263 24.9365695,18.390199 24.9365695,13.2396348 Z" id="Oval-Copy-2" fill="#276EFC" fill-rule="nonzero" transform="translate(15.890951, 21.360809) scale(1, -1) translate(-15.890951, -21.360809) "></path>
            </g>
            <text id="OxApp" font-family="Gotham-Black, Gotham" font-size="24" font-weight="700" fill="#B5CEFD">
                <tspan x="64.292" y="27">OxApp</tspan>
            </text>
        </g>
    </g>
</svg>