<?xml version="1.0" encoding="UTF-8"?>
<svg width="197px" height="132px" viewBox="0 0 197 132" version="1.1" xmlns="http://www.w3.org/2000/svg" xmlns:xlink="http://www.w3.org/1999/xlink">
    <!-- Generator: Sketch 43.2 (39069) - http://www.bohemiancoding.com/sketch -->
    <title>ic_logo-login</title>
    <desc>Created with Sketch.</desc>
    <defs></defs>
    <g id="Recortes" stroke="none" stroke-width="1" fill="none" fill-rule="evenodd">
        <g id="ic_logo-login" fill="#FFFFFF">
            <path d="M21.3774319,113.5084 C22.8716028,113.5084 24.2350133,113.228247 25.4677043,112.667933 C26.7003953,112.107619 27.7462992,111.351206 28.6054475,110.398672 C29.4645957,109.446139 30.1369626,108.334866 30.6225681,107.06482 C31.1081736,105.794775 31.3509728,104.450041 31.3509728,103.030579 L31.3509728,102.918517 C31.3509728,101.499054 31.1081736,100.154321 30.6225681,98.8842756 C30.1369626,97.6142303 29.4459189,96.493619 28.5494163,95.5224079 C27.6529138,94.5511968 26.588333,93.7761073 25.355642,93.197116 C24.122951,92.6181248 22.7595405,92.3286336 21.2653696,92.3286336 C19.7711988,92.3286336 18.4171267,92.6087864 17.2031128,93.1691005 C15.989099,93.7294146 14.9431951,94.4858272 14.0653696,95.4383612 C13.1875442,96.3908951 12.5151774,97.5021681 12.048249,98.7722133 C11.5813206,100.042259 11.3478599,101.386992 11.3478599,102.806455 L11.3478599,102.918517 C11.3478599,104.337979 11.5906591,105.682713 12.0762646,106.952758 C12.5618701,108.222803 13.2435754,109.343415 14.1214008,110.314626 C14.9992262,111.285837 16.0544685,112.060926 17.2871595,112.639918 C18.5198505,113.218909 19.883261,113.5084 21.3774319,113.5084 Z M21.2653696,123.313848 C18.2396736,123.313848 15.4381452,122.781557 12.8607004,121.71696 C10.2832556,120.652364 8.06070973,119.204907 6.19299611,117.374548 C4.32528249,115.544189 2.85914929,113.39635 1.79455253,110.930968 C0.729955767,108.465586 0.19766537,105.83215 0.19766537,103.030579 L0.19766537,102.918517 C0.19766537,100.116946 0.729955767,97.4741713 1.79455253,94.9901122 C2.85914929,92.506053 4.34395935,90.3395377 6.24902724,88.4905013 C8.15409513,86.6414648 10.3953179,85.18467 12.9727626,84.1200732 C15.5502074,83.0554765 18.3517358,82.5231861 21.3774319,82.5231861 C24.403128,82.5231861 27.2046564,83.0554765 29.7821012,84.1200732 C32.359546,85.18467 34.5820918,86.6321263 36.4498054,88.4624857 C38.3175191,90.292845 39.7836523,92.4406835 40.848249,94.9060655 C41.9128458,97.3714474 42.4451362,100.004884 42.4451362,102.806455 L42.4451362,102.918517 C42.4451362,105.720087 41.9128458,108.362862 40.848249,110.846921 C39.7836523,113.330981 38.2988422,115.497496 36.3937743,117.346532 C34.4887064,119.195569 32.2474837,120.652364 29.6700389,121.71696 C27.0925941,122.781557 24.2910657,123.313848 21.2653696,123.313848 Z M55.2762646,107.232914 L45.2466926,92.2165713 L56.7330739,92.2165713 L61.2155642,99.6687114 L65.6980545,92.2165713 L76.9603113,92.2165713 L66.9867704,107.176883 L77.1844358,122.529412 L65.7540856,122.529412 L61.0474708,114.741085 L56.2848249,122.529412 L45.0785992,122.529412 L55.2762646,107.232914 Z M104.19144,107.06482 L99.8210117,95.9146258 L95.3945525,107.06482 L104.19144,107.06482 Z M94.6661479,83.0274662 L105.143969,83.0274662 L121.841245,122.529412 L110.18677,122.529412 L107.329183,115.525521 L92.2007782,115.525521 L89.3992218,122.529412 L77.9688716,122.529412 L94.6661479,83.0274662 Z M141.620233,114.292836 C143.375884,114.292836 144.851356,113.657823 146.046693,112.387778 C147.242029,111.117732 147.839689,109.455492 147.839689,107.401007 L147.839689,107.288945 C147.839689,105.271814 147.242029,103.628251 146.046693,102.358206 C144.851356,101.08816 143.375884,100.453147 141.620233,100.453147 C140.761085,100.453147 139.95798,100.621239 139.210895,100.957427 C138.463809,101.293616 137.81012,101.769876 137.249805,102.386221 C136.689491,103.002567 136.250585,103.721626 135.933074,104.54342 C135.615563,105.365214 135.456809,106.280379 135.456809,107.288945 L135.456809,107.401007 C135.456809,108.409572 135.615563,109.334077 135.933074,110.174548 C136.250585,111.015019 136.689491,111.743416 137.249805,112.359762 C137.81012,112.976107 138.463809,113.452367 139.210895,113.788556 C139.95798,114.124744 140.761085,114.292836 141.620233,114.292836 Z M125.035019,92.2165713 L135.680934,92.2165713 L135.680934,96.2508125 C136.203894,95.6157899 136.764199,95.0181305 137.361868,94.4578164 C137.959536,93.8975023 138.622564,93.4025657 139.350973,92.9729915 C140.079381,92.5434174 140.901163,92.1978956 141.816342,91.9364157 C142.731522,91.6749357 143.749411,91.5441978 144.870039,91.5441978 C146.663044,91.5441978 148.371976,91.9083964 149.996887,92.6368048 C151.621798,93.3652131 153.050577,94.4017786 154.283268,95.7465324 C155.515959,97.0912862 156.496494,98.7348495 157.224903,100.677272 C157.953311,102.619694 158.31751,104.804886 158.31751,107.232914 L158.31751,107.344976 C158.31751,109.810358 157.953311,112.023565 157.224903,113.984665 C156.496494,115.945764 155.525298,117.608004 154.311284,118.971435 C153.09727,120.334866 151.677829,121.38077 150.052918,122.109178 C148.428007,122.837587 146.719075,123.201785 144.92607,123.201785 C143.768088,123.201785 142.731522,123.080386 141.816342,122.837583 C140.901163,122.59478 140.070043,122.277274 139.322957,121.885054 C138.575872,121.492834 137.903505,121.025913 137.305837,120.484276 C136.708168,119.942639 136.166539,119.391671 135.680934,118.831357 L135.680934,131.494392 L125.035019,131.494392 L125.035019,92.2165713 Z M179.497276,114.292836 C181.252927,114.292836 182.728399,113.657823 183.923735,112.387778 C185.119072,111.117732 185.716732,109.455492 185.716732,107.401007 L185.716732,107.288945 C185.716732,105.271814 185.119072,103.628251 183.923735,102.358206 C182.728399,101.08816 181.252927,100.453147 179.497276,100.453147 C178.638128,100.453147 177.835023,100.621239 177.087938,100.957427 C176.340852,101.293616 175.687162,101.769876 175.126848,102.386221 C174.566534,103.002567 174.127628,103.721626 173.810117,104.54342 C173.492605,105.365214 173.333852,106.280379 173.333852,107.288945 L173.333852,107.401007 C173.333852,108.409572 173.492605,109.334077 173.810117,110.174548 C174.127628,111.015019 174.566534,111.743416 175.126848,112.359762 C175.687162,112.976107 176.340852,113.452367 177.087938,113.788556 C177.835023,114.124744 178.638128,114.292836 179.497276,114.292836 Z M162.912062,92.2165713 L173.557977,92.2165713 L173.557977,96.2508125 C174.080936,95.6157899 174.641242,95.0181305 175.238911,94.4578164 C175.836579,93.8975023 176.499607,93.4025657 177.228016,92.9729915 C177.956424,92.5434174 178.778206,92.1978956 179.693385,91.9364157 C180.608565,91.6749357 181.626454,91.5441978 182.747082,91.5441978 C184.540087,91.5441978 186.249019,91.9083964 187.87393,92.6368048 C189.498841,93.3652131 190.92762,94.4017786 192.160311,95.7465324 C193.393002,97.0912862 194.373537,98.7348495 195.101946,100.677272 C195.830354,102.619694 196.194553,104.804886 196.194553,107.232914 L196.194553,107.344976 C196.194553,109.810358 195.830354,112.023565 195.101946,113.984665 C194.373537,115.945764 193.402341,117.608004 192.188327,118.971435 C190.974313,120.334866 189.554872,121.38077 187.929961,122.109178 C186.30505,122.837587 184.596118,123.201785 182.803113,123.201785 C181.64513,123.201785 180.608565,123.080386 179.693385,122.837583 C178.778206,122.59478 177.947085,122.277274 177.2,121.885054 C176.452915,121.492834 175.780548,121.025913 175.182879,120.484276 C174.585211,119.942639 174.043582,119.391671 173.557977,118.831357 L173.557977,131.494392 L162.912062,131.494392 L162.912062,92.2165713 Z" id="OxApp"></path>
            <g id="Group-5" transform="translate(54.031128, 0.000000)">
                <g id="Group" transform="translate(43.738846, 31.498624) rotate(-270.000000) translate(-43.738846, -31.498624) translate(12.610441, -11.983729)">
                    <path d="M30.6420127,72.5953426 C40.2181053,72.5953426 47.9614111,64.798776 47.9614111,55.2058224 C47.9614111,45.6128689 40.2181053,37.8163023 30.6420127,37.8163023 C21.06592,37.8163023 13.3226142,45.6128689 13.3226142,55.2058224 C13.3226142,64.798776 21.06592,72.5953426 30.6420127,72.5953426 Z M30.6420127,86.120417 C13.7188964,86.120417 -9.50385469e-16,72.3459764 -9.50385469e-16,55.3543429 C-9.50385469e-16,38.3627093 13.7188964,24.5882688 30.6420127,24.5882688 C47.565129,24.5882688 61.2840254,38.3627093 61.2840254,55.3543429 C61.2840254,72.3459764 47.565129,86.120417 30.6420127,86.120417 Z" id="Oval-Copy" fill-opacity="0.86" fill-rule="nonzero"></path>
                    <ellipse id="Oval-2" fill-opacity="0.86" cx="30.6420127" cy="55.3139229" rx="5.32904568" ry="5.35062158"></ellipse>
                    <path d="M61.5591663,0.0668827698 C61.5591663,17.0585163 47.8402699,30.8329569 30.9171536,30.8329569 C13.9940373,30.8329569 0.275140946,17.0585163 0.275140946,0.0668827698 L13.4747772,0.0668827698 C13.4747772,9.70080203 21.2730651,17.5306631 30.9171536,17.5306631 C40.5612422,17.5306631 48.3595301,9.70080203 48.3595301,0.0668827698 L61.5591663,0.0668827698 Z M48.3595301,0.0668827698 L61.5591663,0.0668827698 C61.5591663,17.0585163 47.8402699,30.8329569 30.9171536,30.8329569 C13.9940373,30.8329569 0.275140946,17.0585163 0.275140946,0.0668827698 L13.4747772,0.0668827698 C13.4747772,9.70080203 21.2730651,17.5306631 30.9171536,17.5306631 C40.5612422,17.5306631 48.3595301,9.70080203 48.3595301,0.0668827698 Z" id="Oval" fill-rule="nonzero"></path>
                    <path d="M61.2840254,24.9393379 C61.2840254,41.9309714 47.565129,55.705412 30.6420127,55.705412 C13.7188964,55.705412 -9.50385469e-16,41.9309714 -9.50385469e-16,24.9393379 L13.1996362,24.9393379 C13.1996362,34.5732572 20.9979241,42.4031182 30.6420127,42.4031182 C40.2861012,42.4031182 48.0843891,34.5732572 48.0843891,24.9393379 L61.2840254,24.9393379 Z M48.0843891,24.9393379 L61.2840254,24.9393379 C61.2840254,41.9309714 47.565129,55.705412 30.6420127,55.705412 C13.7188964,55.705412 -9.50385469e-16,41.9309714 -9.50385469e-16,24.9393379 L13.1996362,24.9393379 C13.1996362,34.5732572 20.9979241,42.4031182 30.6420127,42.4031182 C40.2861012,42.4031182 48.0843891,34.5732572 48.0843891,24.9393379 Z" id="Oval-Copy-2" fill-rule="nonzero" transform="translate(30.642013, 40.129662) scale(1, -1) translate(-30.642013, -40.129662) "></path>
                </g>
            </g>
        </g>
    </g>
</svg>