<?xml version="1.0" encoding="UTF-8"?>
<svg width="24px" height="24px" viewBox="0 0 24 24" version="1.1" xmlns="http://www.w3.org/2000/svg" xmlns:xlink="http://www.w3.org/1999/xlink">
    <!-- Generator: Sketch 52.4 (67378) - http://www.bohemiancoding.com/sketch -->
    <title>ic_menu_profile-off</title>
    <desc>Created with Sketch.</desc>
    <defs>
        <polygon id="path-1" points="0 7.31744416 0 14.634889 20 14.634889 20 0 0 0 0 7.31744416 0 0 20.0000005 0 20.0000005 14.6348883 0 14.6348883 0 7.31744416"></polygon>
    </defs>
    <g id="Assets" stroke="none" stroke-width="1" fill="none" fill-rule="evenodd">
        <g id="ic_menu_profile-off">
            <rect id="bounds" x="0" y="0" width="24" height="24"></rect>
            <g id="Group-3" transform="translate(2.000000, 5.000000)">
                <mask id="mask-2" fill="white">
                    <use xlink:href="#path-1"></use>
                </mask>
                <g id="Clip-2"></g>
                <polygon id="Stroke-1" stroke-opacity="0.00784313771" stroke="#000000" stroke-width="0.5" mask="url(#mask-2)" points="0 0 20.0000005 0 20.0000005 14.6348883 0 14.6348883"></polygon>
            </g>
            <g id="Group-9" transform="translate(2.000000, 5.000000)" fill="#9A9D9D">
                <path d="M18.7692228,13.1372354 C18.7692228,13.4349788 18.5290608,13.6772122 18.2338612,13.6772122 L1.62563902,13.6772122 C1.33043959,13.6772122 1.09027731,13.4349788 1.09027731,13.1372354 L1.09027731,1.39399839 C1.09027731,1.09625415 1.33043959,0.854021498 1.62563902,0.854021498 L18.2338612,0.854021498 C18.5290608,0.854021498 18.7692228,1.09625415 18.7692228,1.39399839 L18.7692228,13.1372354 Z M18.2338612,0.000151395408 L1.62563902,0.000151395408 C0.863624124,0.000151395408 0.243204938,0.625414407 0.243204938,1.39399839 L0.243204938,13.1372354 C0.243204938,13.9063232 0.863624124,14.5315864 1.62563902,14.5315864 L18.2338612,14.5315864 C18.9958755,14.5315864 19.6162956,13.9063232 19.6162956,13.1372354 L19.6162956,1.39399839 C19.6162956,0.625414407 18.9958755,0.000151395408 18.2338612,0.000151395408 Z" id="Fill-4"></path>
                <path d="M16.8385188,5.8294295 L13.0794786,5.8294295 C12.8453202,5.8294295 12.6556921,6.02069221 12.6556921,6.25636443 C12.6556921,6.49254146 12.8453202,6.68380416 13.0794786,6.68380416 L16.8385188,6.68380416 C17.0721762,6.68380416 17.2618051,6.49254146 17.2618051,6.25636443 C17.2618051,6.02069221 17.0721762,5.8294295 16.8385188,5.8294295" id="Fill-6"></path>
                <path d="M16.8385188,7.84788325 L13.0794786,7.84788325 C12.8453202,7.84788325 12.6556921,8.03914646 12.6556921,8.27481864 C12.6556921,8.51099566 12.8453202,8.70225837 13.0794786,8.70225837 L16.8385188,8.70225837 C17.0721762,8.70225837 17.2618051,8.51099566 17.2618051,8.27481864 C17.2618051,8.03914646 17.0721762,7.84788325 16.8385188,7.84788325" id="Fill-7"></path>
                <path d="M10.9498896,10.8460679 L10.5481184,10.8460679 L10.494582,10.590714 C10.3174623,9.74188993 9.81962551,9.02377184 9.14717123,8.55242749 C9.42686022,8.16636856 9.59297281,7.69048245 9.59297281,7.17674754 C9.59297281,5.88887733 8.55377077,4.84071669 7.2769075,4.84071669 C6.00004472,4.84071669 4.96134278,5.88887733 4.96134278,7.17674754 C4.96134278,7.68997805 5.12645479,8.1648545 5.40614327,8.55091343 C4.73318894,9.02225778 4.23485207,9.74138553 4.05773234,10.590714 L4.00419623,10.8460679 L3.60242477,10.8460679 L3.60242477,3.43526255 L10.9498896,3.43526255 L10.9498896,10.8460679 Z M7.2769075,8.65840381 C6.46686045,8.65840381 5.807915,7.99377831 5.807915,7.17674754 C5.807915,6.35971682 6.46686045,5.69509132 7.2769075,5.69509132 C8.08695509,5.69509132 8.74590004,6.35971682 8.74590004,7.17674754 C8.74590004,7.99377831 8.08695509,8.65840381 7.2769075,8.65840381 Z M4.86978111,10.8460679 L4.88629226,10.7663325 C5.03139028,10.0724369 5.46468313,9.49461088 6.04257346,9.15144782 C6.40031528,9.37955103 6.82360115,9.51227357 7.2769075,9.51227357 C7.73021389,9.51227357 8.15299967,9.38005538 8.51024046,9.15245752 C9.08813129,9.49562058 9.52142466,10.0724369 9.66602212,10.7663325 L9.68253277,10.8460679 L4.86978111,10.8460679 Z M11.373175,2.58088792 L3.17913889,2.58088792 C2.94498047,2.58088792 2.75535248,2.77215063 2.75535248,3.00832743 L2.75535248,11.2730023 C2.75535248,11.5091793 2.94498047,11.700442 3.17913889,11.700442 L4.34792839,11.700442 L10.204386,11.700442 L11.373175,11.700442 C11.6073335,11.700442 11.7969614,11.5091793 11.7969614,11.2730023 L11.7969614,3.00832743 C11.7969614,2.77215063 11.6073335,2.58088792 11.373175,2.58088792 Z" id="Fill-8"></path>
            </g>
        </g>
    </g>
</svg>