<?xml version="1.0" encoding="UTF-8"?>
<svg width="24px" height="24px" viewBox="0 0 24 24" version="1.1" xmlns="http://www.w3.org/2000/svg" xmlns:xlink="http://www.w3.org/1999/xlink">
    <!-- Generator: Sketch 52.4 (67378) - http://www.bohemiancoding.com/sketch -->
    <title>ic_menu_freight-off</title>
    <desc>Created with Sketch.</desc>
    <g id="Assets" stroke="none" stroke-width="1" fill="none" fill-rule="evenodd">
        <g id="ic_menu_freight-off">
            <rect id="bounds" x="0" y="0" width="24" height="24"></rect>
            <g id="Page-1" transform="translate(2.000000, 6.000000)" fill="#9A9D9D">
                <path d="M17.3775417,6.61424044 C16.5023506,6.61424044 15.7898178,5.88983689 15.7898178,4.998904 C15.7898178,4.1084917 16.5023506,3.38408815 17.3775417,3.38408815 C18.2527347,3.38408815 18.9652656,4.1084917 18.9652656,4.998904 C18.9652656,5.88983689 18.2527347,6.61424044 17.3775417,6.61424044 M8.58828381,4.11109354 C7.71309177,4.11109354 7.00107118,3.38669024 7.00107118,2.49575732 C7.00107118,1.60534465 7.71309177,0.880941222 8.58828381,0.880941222 C9.46347488,0.880941222 10.1760077,1.60534465 10.1760077,2.49575732 C10.1760077,3.38669024 9.46347488,4.11109354 8.58828381,4.11109354 M2.47882038,11.0335176 C1.60362844,11.0335176 0.891608041,10.309114 0.891608041,9.41870223 C0.891608041,8.52776931 1.60362844,7.80336529 2.47882038,7.80336529 C3.35401221,7.80336529 4.06654426,8.52776931 4.06654426,9.41870223 C4.06654426,10.309114 3.35401221,11.0335176 2.47882038,11.0335176 M17.3775417,2.50304295 C16.4072095,2.50304295 15.5668005,3.07913098 15.1693578,3.9128193 L11.0302267,2.73410255 C11.0373878,2.65552142 11.0414806,2.57641992 11.0414806,2.49575732 C11.0414806,1.11980695 9.94122431,-0.000104080959 8.58828381,-0.000104080959 C7.23534239,-0.000104080959 6.13508656,1.11980695 6.13508656,2.49575732 C6.13508656,3.07340644 6.32946001,3.60526028 6.65426785,4.02834922 L3.76935738,7.29701166 C3.39442142,7.05970692 2.95196603,6.92232006 2.47882038,6.92232006 C1.12587906,6.92232006 0.0256233163,8.0422314 0.0256233163,9.41870223 C0.0256233163,10.794652 1.12587906,11.9145633 2.47882038,11.9145633 C3.83176159,11.9145633 4.93201739,10.794652 4.93201739,9.41870223 C4.93201739,8.84105262 4.73815564,8.30919879 4.41334733,7.88610986 L7.29774633,4.61744741 C7.67319402,4.85475216 8.11513745,4.99213899 8.58828381,4.99213899 C9.55861601,4.99213899 10.399025,4.41605071 10.796979,3.58236239 L14.9355978,4.76107914 C14.9284367,4.83966027 14.9243449,4.91876202 14.9243449,4.998904 C14.9243449,6.37537485 16.0246002,7.49528567 17.3775417,7.49528567 C18.7304831,7.49528567 19.8307394,6.37537485 19.8307394,4.998904 C19.8307394,3.622954 18.7304831,2.50304295 17.3775417,2.50304295" id="Fill-2" transform="translate(9.928181, 5.957230) scale(-1, -1) translate(-9.928181, -5.957230) "></path>
            </g>
        </g>
    </g>
</svg>