<?xml version="1.0" encoding="UTF-8"?>
<svg width="104px" height="83px" viewBox="0 0 104 83" version="1.1" xmlns="http://www.w3.org/2000/svg" xmlns:xlink="http://www.w3.org/1999/xlink">
    <!-- Generator: Sketch 52.4 (67378) - http://www.bohemiancoding.com/sketch -->
    <title>ic_modal_welcome-truck</title>
    <desc>Created with Sketch.</desc>
    <g id="Assets" stroke="none" stroke-width="1" fill="none" fill-rule="evenodd">
        <g id="ic_modal_welcome-truck">
            <g id="Group-2" transform="translate(52.000000, 41.500000) scale(-1, 1) translate(-52.000000, -41.500000) translate(2.000000, 1.000000)">
                <path d="M68.8877108,29.4444444 C68.8877108,13.1842027 55.7058643,0 39.4432663,0 C23.1818465,0 10,13.1842027 10,29.4444444 C10,45.7064534 23.1818465,58.8888889 39.4432663,58.8888889 C55.7058643,58.8888889 68.8877108,45.7064534 68.8877108,29.4444444 Z" id="Stroke-8027" stroke="#FFFFFF" stroke-width="2" stroke-dasharray="6,3"></path>
                <path d="M83.333111,6.66666667 C83.333111,3.59869652 80.8459702,1.11111111 77.7775555,1.11111111 C74.7093631,1.11111111 72.2222222,3.59869652 72.2222222,6.66666667 C72.2222222,9.73497024 74.7093631,12.2222222 77.7775555,12.2222222 C80.8459702,12.2222222 83.333111,9.73497024 83.333111,6.66666667 Z" id="Stroke-8027-Copy" stroke="#FE6276"></path>
                <path d="M88.8888222,16.1111111 C88.8888222,15.1907201 88.14268,14.4444444 87.2221555,14.4444444 C86.3016978,14.4444444 85.5555556,15.1907201 85.5555556,16.1111111 C85.5555556,17.0316022 86.3016978,17.7777778 87.2221555,17.7777778 C88.14268,17.7777778 88.8888222,17.0316022 88.8888222,16.1111111 Z" id="Stroke-8027-Copy-2" fill="#988FD7"></path>
                <g id="Group-3" transform="translate(0.000000, 16.666667)">
                    <rect id="Rectangle-2" fill="#7AA4B5" x="5.76923077" y="57.5757576" width="86.5384615" height="1.91919192" rx="0.95959596"></rect>
                    <rect id="Rectangle-2-Copy" fill="#7AA4B5" x="0" y="61.4141414" width="67.3076923" height="1.91919192" rx="0.95959596"></rect>
                    <rect id="Rectangle-2-Copy-2" fill="#7AA4B5" x="71.1538462" y="61.4141414" width="28.8461538" height="1.91919192" rx="0.95959596"></rect>
                    <g id="Truck" transform="translate(14.423077, 0.000000)">
                        <path d="M27.4038462,0 C25.0153846,0 23.0769231,1.97435092 23.0769231,4.4070333 L23.0769231,37.459783 L68.5096154,39.6632997 L68.5096154,4.4070333 C68.5096154,1.97435092 66.5711538,0 64.1826923,0 L27.4038462,0 Z" id="Fill-473" stroke="#043C43" fill="#7AE35A"></path>
                        <path d="M52.7063169,23.2596586 C53.8872551,26.0327234 51.0854212,28.828897 48.3067429,27.6503445 C47.172116,30.4465182 43.2124994,30.4465182 42.0778725,27.6503445 C39.2991942,28.828897 36.4973603,26.0327234 37.6782985,23.2596586 C34.8764646,22.1273238 34.8764646,18.1757065 37.6782985,17.0433717 C36.4973603,14.2703069 39.2991942,11.4741333 42.0778725,12.6526858 C43.2124994,9.85651214 47.172116,9.85651214 48.3067429,12.6526858 C51.0854212,11.4741333 53.8872551,14.2703069 52.7063169,17.0433717 C55.5081508,18.1988154 55.5081508,22.1273238 52.7063169,23.2596586 Z M51.965336,17.3668959 C53.030496,14.8711376 50.5065299,12.3522704 48.0057194,13.4152786 C46.9868707,10.8964114 43.4209003,10.8964114 42.4020516,13.4152786 C39.9012411,12.3522704 37.377275,14.8711376 38.442435,17.3668959 C37.3309637,17.8059645 36.5668272,18.8920816 36.5668272,20.1630696 C36.5668272,21.4340576 37.3541194,22.5201747 38.442435,22.9592432 C37.377275,25.4550016 39.9012411,27.9738687 42.4020516,26.9108606 C43.4209003,29.4297277 46.9868707,29.4297277 48.0057194,26.9108606 C50.5065299,27.9738687 53.030496,25.4550016 51.965336,22.9592432 C54.4893021,21.919344 54.4893021,18.3836864 51.965336,17.3668959 Z M48.0751864,25.4318927 C46.7553142,25.4318927 45.6669986,24.3688845 45.6669986,23.0285699 C45.6669986,21.7113641 46.7321586,20.6252471 48.0751864,20.6252471 C49.4182142,20.6252471 50.4833742,21.6882552 50.4833742,23.0285699 C50.4833742,24.3688845 49.4182142,25.4318927 48.0751864,25.4318927 Z M48.0751864,21.5958197 C47.2878942,21.5958197 46.639536,22.2428682 46.639536,23.0285699 C46.639536,23.8142716 47.2878942,24.46132 48.0751864,24.46132 C48.8624786,24.46132 49.5108368,23.8142716 49.5108368,23.0285699 C49.5339925,22.2428682 48.8856342,21.5958197 48.0751864,21.5958197 Z M41.3600472,23.3058763 L48.3530542,16.3269966 L49.0477238,17.0202628 L42.0547168,23.9991425 L41.3600472,23.3058763 Z M42.3325846,19.6777833 C41.0127125,19.6777833 39.9243968,18.6147751 39.9243968,17.2744604 C39.9243968,15.9572547 40.9895568,14.8711376 42.3325846,14.8711376 C43.6756125,14.8711376 44.7407725,15.9341458 44.7407725,17.2744604 C44.7176168,18.6147751 43.6524568,19.6777833 42.3325846,19.6777833 Z M42.3325846,15.8417103 C41.5452925,15.8417103 40.8969342,16.4887587 40.8969342,17.2744604 C40.8969342,18.0601621 41.5452925,18.7072106 42.3325846,18.7072106 C43.1198768,18.7072106 43.7682351,18.0601621 43.7682351,17.2744604 C43.7682351,16.4887587 43.1198768,15.8417103 42.3325846,15.8417103 Z" id="Shape" fill-opacity="0.54" fill="#000000"></path>
                        <path d="M67.0673077,37.459783 L0,37.459783 L0,46.2738496 C0,47.4923943 0.969230769,48.4773663 2.16346154,48.4773663 L67.0673077,48.4773663 C68.2615385,48.4773663 69.2307692,47.4901908 69.2307692,46.2738496 L69.2307692,39.6632997 C69.2307692,38.444755 68.2615385,37.459783 67.0673077,37.459783" id="Fill-466" stroke="#043C43" fill="#FC4388"></path>
                        <path d="M50.1453347,37.459783 L24.1583172,37.459783 L15.0246055,37.459783 M18.523267,48.4773663 C30.1927206,48.4773663 53.5316277,48.4773663 53.5316277,48.4773663" id="Fill-466-Copy" fill-opacity="0.119508605" fill="#FFFFFF"></path>
                        <path d="M10.8173077,13.2210999 C8.42668269,13.2210999 7.20432692,13.9702955 6.49038462,15.4246165 L0,28.6457164 L0,41.8668163 L8.65384615,41.8668163 C8.65384615,37.459783 15.1442308,37.459783 15.1442308,37.459783 L23.7980769,37.459783 L23.7980769,17.6281332 C23.7980769,15.1954508 21.8596154,13.2210999 19.4711538,13.2210999 L10.8173077,13.2210999 Z" id="Fill-467" stroke="#043C43" fill="#6E82C9"></path>
                        <path d="M17.3076923,17.6281332 L10.8173077,17.6281332 C9.62307692,17.6281332 9.18173077,18.7563337 8.65384615,19.8316498 L4.32692308,28.6457164 L17.3076923,28.6457164 C18.5019231,28.6457164 19.4711538,27.658541 19.4711538,26.4421998 L19.4711538,19.8316498 C19.4711538,18.6131051 18.5019231,17.6281332 17.3076923,17.6281332" id="Fill-468" fill-opacity="0.720000029" fill="#FFFFFF"></path>
                        <path d="M2.16346154,33.0527497 L0,33.0527497 L0,39.6632997 L2.16346154,39.6632997 C3.35769231,39.6632997 4.32692308,38.6761242 4.32692308,37.459783 L4.32692308,35.2562664 C4.32692308,34.0377217 3.35769231,33.0527497 2.16346154,33.0527497" id="Fill-469" fill-opacity="0.38" fill="#000000"></path>
                        <path d="M38.9423077,39.6632997 L30.2884615,39.6632997 C29.0920673,39.6632997 28.125,40.4020286 28.125,41.3159371 L28.125,44.6212121 C28.125,45.533468 29.0920673,46.2738496 30.2884615,46.2738496 L38.9423077,46.2738496 C40.1365385,46.2738496 41.1057692,45.533468 41.1057692,44.6212121 L41.1057692,41.3159371 C41.1057692,40.4020286 40.1365385,39.6632997 38.9423077,39.6632997" id="Fill-470" fill-opacity="0.24" fill="#000000"></path>
                        <path d="M17.3076923,39.6632997 C12.5286058,39.6632997 8.65384615,43.609798 8.65384615,48.4773663 C8.65384615,53.3449345 12.5286058,57.2914328 17.3076923,57.2914328 C22.0867788,57.2914328 25.9615385,53.3449345 25.9615385,48.4773663 C25.9615385,43.609798 22.0867788,39.6632997 17.3076923,39.6632997 L17.3076923,39.6632997 Z M51.9230769,39.6632997 C47.1439904,39.6632997 43.2692308,43.609798 43.2692308,48.4773663 C43.2692308,53.3449345 47.1439904,57.2914328 51.9230769,57.2914328 C56.7021635,57.2914328 60.5769231,53.3449345 60.5769231,48.4773663 C60.5769231,43.609798 56.7021635,39.6632997 51.9230769,39.6632997 L51.9230769,39.6632997 Z" id="Fill-471" stroke="#043C43" fill="#535D76"></path>
                        <path d="M51.9230769,44.070333 C49.5324519,44.070333 47.5961538,46.0424804 47.5961538,48.4773663 C47.5961538,50.9100486 49.5324519,52.882196 51.9230769,52.882196 C54.3115385,52.882196 56.25,50.9100486 56.25,48.4773663 C56.25,46.0424804 54.3115385,44.070333 51.9230769,44.070333 L51.9230769,44.070333 Z M17.3076923,44.070333 C14.9170673,44.070333 12.9807692,46.0424804 12.9807692,48.4773663 C12.9807692,50.9100486 14.9170673,52.882196 17.3076923,52.882196 C19.6961538,52.882196 21.6346154,50.9100486 21.6346154,48.4773663 C21.6346154,46.0424804 19.6961538,44.070333 17.3076923,44.070333 L17.3076923,44.070333 Z" id="Fill-472" fill-opacity="0.54" fill="#FFFFFF"></path>
                    </g>
                </g>
            </g>
        </g>
    </g>
</svg>