<?xml version="1.0" encoding="UTF-8"?>
<svg width="25px" height="24px" viewBox="0 0 25 24" version="1.1" xmlns="http://www.w3.org/2000/svg" xmlns:xlink="http://www.w3.org/1999/xlink">
    <!-- Generator: Sketch 52.4 (67378) - http://www.bohemiancoding.com/sketch -->
    <title>ic_menu_payment-on</title>
    <desc>Created with Sketch.</desc>
    <g id="Assets" stroke="none" stroke-width="1" fill="none" fill-rule="evenodd">
        <g id="ic_menu_payment-on" fill="#07C2DC">
            <g id="Page-1" transform="translate(3.000000, 6.000000)">
                <path d="M18.28277,12.1153001 L1.57353841,12.1153001 C1.18430773,12.1153001 0.867897421,11.8067998 0.867897421,11.4278001 L0.867897421,6.4538002 L18.9878982,6.4538002 L18.9878982,11.4278001 C18.9878982,11.8067998 18.6714876,12.1153001 18.28277,12.1153001 Z M0.867897421,5.6078 L18.9878982,5.6078 L18.9878982,4.03880023 L0.867897421,4.03880023 L0.867897421,5.6078 Z M1.57353841,0.846300005 L18.28277,0.846300005 C18.6714876,0.846300005 18.9878982,1.15480005 18.9878982,1.5338 L18.9878982,3.19230008 L0.867897421,3.19230008 L0.867897421,1.5338 C0.867897421,1.15480005 1.18430773,0.846300005 1.57353841,0.846300005 Z M18.28277,-0.000200000009 L1.57353841,-0.000200000009 C0.705846149,-0.000200000009 0.000205128214,0.68830001 0.000205128214,1.5338 L0.000205128214,3.61529994 L0.000205128214,6.03079985 L0.000205128214,11.4278001 C0.000205128214,12.2733001 0.705846149,12.9617996 1.57353841,12.9617996 L18.28277,12.9617996 C19.150461,12.9617996 19.8561017,12.2733001 19.8561017,11.4278001 L19.8561017,6.03079985 L19.8561017,3.61529994 L19.8561017,1.5338 C19.8561017,0.68830001 19.150461,-0.000200000009 18.28277,-0.000200000009 Z" id="Fill-2"></path>
            </g>
        </g>
    </g>
</svg>