<?xml version="1.0" encoding="UTF-8"?>
<svg width="21px" height="21px" viewBox="0 0 21 21" version="1.1" xmlns="http://www.w3.org/2000/svg" xmlns:xlink="http://www.w3.org/1999/xlink">
    <!-- Generator: Sketch 52.4 (67378) - http://www.bohemiancoding.com/sketch -->
    <title>ic_money</title>
    <desc>Created with Sketch.</desc>
    <g id="Assets" stroke="none" stroke-width="1" fill="none" fill-rule="evenodd">
        <g id="ic_money">
            <rect id="Request-/-Icon-/-Local-Destiny" x="0" y="0" width="20" height="20"></rect>
            <path d="M10.6751986,18 L9.43954104,18 L9.43954104,16.8392339 C6.67696381,16.6720836 5.00882613,15.2048752 5,12.9390598 L7.52427184,12.9390598 C7.58605472,13.8583865 8.33627538,14.5455601 9.43954104,14.6662797 L9.43954104,11.2118398 L8.51279788,10.9796866 C6.3945278,10.4596634 5.25595763,9.1781776 5.25595763,7.23737667 C5.25595763,4.95298897 6.80935569,3.48578062 9.43954104,3.26291352 L9.43954104,2 L10.6751986,2 L10.6751986,3.26291352 C13.1288614,3.50435287 14.717564,5.01799187 14.7528685,7.16308764 L12.2903795,7.16308764 C12.2639011,6.31804991 11.6019417,5.62159025 10.6751986,5.48229832 L10.6751986,8.78816019 L11.619594,8.99245502 C13.8879082,9.50319211 15,10.7382472 15,12.7440511 C15,15.1120139 13.4377758,16.5792223 10.6751986,16.8206616 L10.6751986,18 Z M12.4933804,13.0597795 C12.4933804,12.2054556 11.9108561,11.6854324 10.6751986,11.443993 L10.6751986,14.6755659 C11.8225949,14.6012768 12.4933804,13.9976785 12.4933804,13.0597795 Z M7.81553398,6.97736506 C7.81553398,7.75739988 8.37157988,8.29599536 9.43954104,8.51886245 L9.43954104,5.47301219 C8.48631951,5.52872896 7.81553398,6.15089959 7.81553398,6.97736506 Z" id="$" fill-opacity="0.54" fill="#000000"></path>
        </g>
    </g>
</svg>