<?xml version="1.0" encoding="UTF-8"?>
<svg width="51px" height="50px" viewBox="0 0 51 50" version="1.1" xmlns="http://www.w3.org/2000/svg" xmlns:xlink="http://www.w3.org/1999/xlink">
    <!-- Generator: Sketch 52.4 (67378) - http://www.bohemiancoding.com/sketch -->
    <title>ic_payment</title>
    <desc>Created with Sketch.</desc>
    <g id="Assets" stroke="none" stroke-width="1" fill="none" fill-rule="evenodd">
        <g id="ic_payment">
            <g id="Page-1" transform="translate(7.000000, 4.000000)">
                <g id="Group-34">
                    <path d="M19.8915761,32.3301735 L10.3837313,22.6993825 L7.29639789,21.9770736 C6.90385966,22.1710637 5.83286913,21.4687052 6.24442291,21.8264207 L14.1400092,29.958246 C14.1902645,30.008465 14.2479901,30.0456128 14.3016418,30.0910138 L14.3016418,32.3301735 L19.8915761,32.3301735 Z" id="Fill-2" fill="#F8C178"></path>
                    <path d="M20.4760365,32.3301735 L27.8840052,32.3301735 L27.8840052,29.2276841 C29.1193461,28.285928 29.9214005,26.7931567 29.9214005,25.1070802 C29.9214005,24.4136636 29.7821799,23.7553298 29.5363345,23.1527178 L20.4760365,32.3301735 Z" id="Fill-3" fill="#FFD092"></path>
                    <path d="M11.5398853,0.52187192 L0.0143394767,12.195766 L6.25691839,18.5190692 C6.68001762,18.1290212 7.23554727,17.8841246 7.8494826,17.8841246 L14.640801,17.8841246 C15.9481291,17.8841246 17.0177622,18.9675879 17.0177622,20.2918224 C17.0177622,21.6160557 15.9481291,22.6995189 14.640801,22.6995189 L10.384002,22.6995189 L20.1838736,32.626113 L31.7087406,20.9515314 L11.5398853,0.52187192 Z" id="Fill-4" fill="#4CD964"></path>
                    <polygon id="Fill-5" fill="#F00A6B" points="12.9430389 39.8972236 29.2422014 39.8972236 29.2422014 32.3301735 12.9430389 32.3301735"></polygon>
                    <path d="M23.8091473,39.8972236 L12.9430389,39.8972236 L12.9430389,32.3301735 L19.3445353,32.3301735 C21.8104619,32.3301735 23.8091473,34.3547039 23.8091473,36.8525187 L23.8091473,39.8972236 Z" id="Fill-6" fill="#FC4388"></path>
                    <path d="M21.0926202,36.1136986 C21.0926202,37.0637077 20.3326721,37.8334827 19.3947908,37.8334827 C18.4569094,37.8334827 17.6969613,37.0637077 17.6969613,36.1136986 C17.6969613,35.1636894 18.4569094,34.3939145 19.3947908,34.3939145 C20.3326721,34.3939145 21.0926202,35.1636894 21.0926202,36.1136986" id="Fill-7" fill="#FECA41"></path>
                    <path d="M18.3111006,7.36049032 C19.1484699,6.98764126 19.73456,6.14288289 19.73456,5.15779077 C19.73456,3.82805362 18.6703609,2.750093 17.3575988,2.750093 C16.3844038,2.750093 15.5504296,3.34376242 15.1823403,4.19127227 L18.3111006,7.36049032 Z" id="Fill-8" fill="#FFD092"></path>
                    <path d="M21.7067595,10.8000586 C22.5441275,10.4272095 23.1302201,9.58245112 23.1302201,8.59735933 C23.1302201,7.26762184 22.0660198,6.18966156 20.7532576,6.18966156 C19.7800627,6.18966156 18.9460885,6.78333099 18.5779992,7.63084017 L21.7067595,10.8000586 Z" id="Fill-9" fill="#FFD092"></path>
                    <path d="M25.1024183,14.2396262 C25.9397864,13.8667771 26.525879,13.02202 26.525879,12.0369269 C26.525879,10.7071901 25.4616786,9.6292298 24.1489178,9.6292298 C23.1757203,9.6292298 22.341746,10.2228992 21.9736567,11.070409 L25.1024183,14.2396262 Z" id="Fill-10" fill="#FFD092"></path>
                    <path d="M28.4980772,17.6791944 C29.3354452,17.3063454 29.9215378,16.4615882 29.9215378,15.4764951 C29.9215378,14.1467589 28.8573375,13.0687974 27.5445766,13.0687974 C26.5713791,13.0687974 25.7374049,13.6624674 25.3693156,14.5099773 L28.4980772,17.6791944 Z" id="Fill-11" fill="#FFD092"></path>
                    <path d="M14.6408684,22.6993825 L7.84955065,22.6993825 C6.54222185,22.6993825 5.47258945,21.6159179 5.47258945,20.2916847 C5.47258945,18.9674514 6.54222185,17.8839869 7.84955065,17.8839869 L14.6408684,17.8839869 C15.9481965,17.8839869 17.0178296,18.9674514 17.0178296,20.2916847 C17.0178296,21.6159179 15.9481965,22.6993825 14.6408684,22.6993825" id="Fill-12" fill="#FDD7AD"></path>
                    <path d="M15.8618788,7.81857222 L13.4604694,5.38610939 L12.9803227,5.87246418 C12.210188,6.6518706 10.8689025,6.6518706 10.099446,5.87246418 L9.61929999,5.38610939 L4.81715918,10.2503468 L5.29730519,10.7367016 C6.09121065,11.54156 6.09121065,12.8506609 5.29730519,13.6555199 L4.81715918,14.1418741 L7.21788985,16.5743375 C7.35032102,16.7084805 7.52417841,16.7758958 7.69803648,16.7758958 C7.87189395,16.7758958 8.04575202,16.7084805 8.17818251,16.5743375 C8.4437229,16.3053628 8.4437229,15.8699138 8.17818251,15.6009391 L6.6895254,14.0930327 C7.43724941,12.9476559 7.43724941,11.444565 6.6895254,10.2991888 L9.66683963,7.28337547 C10.7677118,8.02494576 12.3106987,8.02494576 13.4129303,7.28337547 L14.9015868,8.79128177 C15.1671278,9.06025587 15.5963391,9.06025587 15.8618788,8.79128177 C16.1274198,8.52230767 16.1274198,8.08754625 15.8618788,7.81857222" id="Fill-13" fill-opacity="0.24" fill="#000000"></path>
                    <path d="M26.9066678,19.0059049 L24.5059371,16.5741302 C24.2403948,16.3051568 23.8105048,16.3051568 23.5456438,16.5741302 C23.280104,16.8424174 23.280104,17.2778663 23.5456438,17.5468398 L25.0343015,19.0547474 C24.2865763,20.200123 24.2865763,21.7032153 25.0343015,22.8485908 L22.056986,25.865091 C20.954757,25.1228332 19.4117688,25.1228332 18.310896,25.865091 L16.8222395,24.3564985 C16.5566985,24.0882126 16.1268085,24.0882126 15.8619475,24.3564985 C15.5964064,24.6254719 15.5964064,25.0609208 15.8619475,25.3292067 L18.2626782,27.7623591 L18.7428249,27.2753161 C19.5136383,26.4959103 20.8549238,26.4972854 21.624381,27.2753161 L22.1045276,27.7623591 L26.9066678,22.8974321 L26.4265211,22.4110766 C25.632617,21.6062189 25.632617,20.2971193 26.4265211,19.4922603 L26.9066678,19.0059049 Z" id="Fill-14" fill-opacity="0.24" fill="#000000"></path>
                    <path d="M28.347512,20.4654515 C28.0819722,20.196478 27.6520822,20.196478 27.3872212,20.4654515 C27.1216815,20.7344262 27.1216815,21.1698751 27.3872212,21.438161 C27.6520822,21.7071358 28.0819722,21.7071358 28.347512,21.438161 C28.6130542,21.1698751 28.6130542,20.7344262 28.347512,20.4654515" id="Fill-15" fill-opacity="0.24" fill="#000000"></path>
                    <path d="M19.7035922,28.2482317 C19.4380512,28.5172051 19.4380512,28.9526541 19.7035922,29.2209426 C19.969132,29.489916 20.3990233,29.489916 20.6638843,29.2209426 C20.9294253,28.9526541 20.9294253,28.5172051 20.6638843,28.2482317 C20.3990233,27.9799457 19.969132,27.9799457 19.7035922,28.2482317" id="Fill-16" fill-opacity="0.24" fill="#000000"></path>
                    <path d="M12.0200307,4.8996857 C12.2855717,4.63071128 12.2855717,4.19526201 12.0200307,3.92697579 C11.754491,3.65800136 11.3245996,3.65800136 11.0597387,3.92697579 C10.7941976,4.19526201 10.7941976,4.63071128 11.0597387,4.8996857 C11.3245996,5.1686598 11.754491,5.1686598 12.0200307,4.8996857" id="Fill-17" fill-opacity="0.24" fill="#000000"></path>
                    <path d="M3.37610974,11.7097556 C3.11056903,11.9787304 3.11056903,12.4141793 3.37610974,12.6824653 C3.64165012,12.95144 4.07154079,12.95144 4.33640209,12.6824653 C4.60194247,12.4141793 4.60194247,11.9787304 4.33640209,11.7097556 C4.07154079,11.4407809 3.64165012,11.4407809 3.37610974,11.7097556" id="Fill-18" fill-opacity="0.24" fill="#000000"></path>
                    <path d="M20.1838063,12.1961111 C17.7966572,9.77809376 13.9269644,9.77809376 11.5398167,12.1961111 C10.0151659,13.7404765 9.46914403,15.8970859 9.89224326,17.8837809 L14.6407323,17.8837809 C15.9480617,17.8837809 17.0176935,18.9672441 17.0176935,20.2914787 C17.0176935,21.5386659 16.0655505,22.5602168 14.8634882,22.676476 C16.7412872,22.9901628 18.7352186,22.4191958 20.1838063,20.9518751 C22.570954,18.5338591 22.570954,14.6141271 20.1838063,12.1961111" id="Fill-19" fill-opacity="0.24" fill="#000000"></path>
                </g>
            </g>
            <rect id="Rectangle" fill="#D8D8D8" x="12" y="45" width="29" height="1"></rect>
            <rect id="Rectangle-Copy" fill="#D8D8D8" x="4" y="41" width="14" height="1"></rect>
            <rect id="Rectangle-Copy-2" fill="#D8D8D8" x="39" y="41" width="8" height="1"></rect>
        </g>
    </g>
</svg>