<?xml version="1.0" encoding="UTF-8"?>
<svg width="61px" height="43px" viewBox="0 0 61 43" version="1.1" xmlns="http://www.w3.org/2000/svg" xmlns:xlink="http://www.w3.org/1999/xlink">
    <!-- Generator: Sketch 52.4 (67378) - http://www.bohemiancoding.com/sketch -->
    <title>ic_pin_truck</title>
    <desc>Created with Sketch.</desc>
    <g id="Assets" stroke="none" stroke-width="1" fill="none" fill-rule="evenodd">
        <g id="ic_pin_truck">
            <g id="cargo-truck-copy" transform="translate(13.000000, 4.000000)">
                <path d="M30.7777346,24.15 L3.15140652,24.15 C2.37222453,24.15 1.73469388,23.4933541 1.73469388,22.6908097 L1.73469388,1.45925872 C1.73469388,0.656645906 2.37222453,0 3.15140652,0 L30.8485935,0 C31.6277755,0 32.2653061,0.656645906 32.2653061,1.45919032 L32.2653061,22.6907413 C32.1944472,23.5662692 31.5569166,24.15 30.7777346,24.15 Z" id="Shape" fill="#4CD964" fill-rule="nonzero"></path>
                <path d="M2.76133183,16.1 L0.708055928,16.1 C0.283235647,16.1 0,15.8199781 0,15.3999781 L0,11.5500219 C0,11.1300219 0.283235647,10.85 0.708055928,10.85 L2.76133183,10.85 C3.18615211,10.85 3.46938776,11.1300219 3.46938776,11.5500219 L3.46938776,15.4000438 C3.46938776,15.8200437 3.1153266,16.1 2.76133183,16.1 Z" id="Shape" fill="#ACB3BA" fill-rule="nonzero"></path>
                <path d="M2.11751707,10.85 L1.04081633,10.85 L1.04081633,10.1937423 C1.04081633,9.40625769 1.75863925,8.75 2.61999985,8.75 L6.24489796,8.75 L6.24489796,9.73435577 L2.61999985,9.73435577 C2.33285722,9.73435577 2.11751707,9.93122693 2.11751707,10.1937423 L2.11751707,10.85 Z" id="Shape" fill="#CDD6E0" fill-rule="nonzero"></path>
                <path d="M31.2386682,16.1 L33.2919441,16.1 C33.7167644,16.1 34,15.8199781 34,15.3999781 L34,11.5500219 C34,11.1300219 33.7167644,10.85 33.2919441,10.85 L31.2386682,10.85 C30.8138479,10.85 30.5306122,11.1300219 30.5306122,11.5500219 L30.5306122,15.4000438 C30.5306122,15.8200437 30.8846734,16.1 31.2386682,16.1 Z" id="Shape" fill="#ACB3BA" fill-rule="nonzero"></path>
                <path d="M32.6122449,10.85 L32.6122449,10.1937423 C32.6122449,9.40625769 31.894422,8.75 31.0330614,8.75 L27.755102,8.75 L27.755102,9.73435577 L31.0330614,9.73435577 C31.320204,9.73435577 31.5355442,9.93122693 31.5355442,10.1937423 L31.5355442,10.85 L32.6122449,10.85 Z" id="Shape" fill="#CDD6E0" fill-rule="nonzero"></path>
                <path d="M26.28918,35 L24.0169424,35 C23.2106956,35 22.5510204,34.3556772 22.5510204,33.568194 L22.5510204,31.85 L27.755102,31.85 L27.755102,33.568194 C27.755102,34.3556772 27.0954268,35 26.28918,35 Z" id="SVGCleanerId_1" fill="#23AECA" fill-rule="nonzero"></path>
                <path d="M9.98305756,35 L7.71081999,35 C6.90457318,35 6.24489796,34.3556772 6.24489796,33.568194 L6.24489796,31.85 L11.4489796,31.85 L11.4489796,33.568194 C11.4490483,34.3556772 10.7893731,35 9.98305756,35 Z" id="SVGCleanerId_0_1_" fill="#23AECA" fill-rule="nonzero"></path>
                <path d="M31.2244898,19.817183 L31.2244898,30.3826034 C31.2244898,31.1896612 30.6555315,31.85 29.8020608,31.85 L4.19793918,31.85 C3.41561325,31.85 2.7755102,31.1896612 2.7755102,30.3826034 L2.7755102,19.817183 C2.7755102,19.333999 3.78885623,15.5568279 5.81554827,8.48566957 L5.81555651,8.48567193 C6.245809,6.98451465 7.61848277,5.95 9.18008143,5.95 L24.8199241,5.95000291 C26.3815252,5.95000291 27.7542012,6.98451925 28.1844544,8.48567896 C30.2111447,15.5568312 31.2244898,19.3339993 31.2244898,19.817183 Z" id="Combined-Shape" fill="#23AECA" fill-rule="nonzero"></path>
                <path d="M6.62068838,16.5969947 L8.52403405,9.68537473 C8.73313099,8.92608093 9.42366934,8.4 10.211228,8.4 L24.0721902,8.4 C24.8849691,8.4 25.5907664,8.95960685 25.7760914,9.75097542 L27.3793122,16.5969947 C27.4408706,16.8088475 27.4027108,17.0385815 27.27641,17.2164983 C27.1501091,17.3944151 26.950553,17.4995453 26.7382846,17.4999938 L7.26507222,17.4999938 C7.05221294,17.5006541 6.85166981,17.3959864 6.72458996,17.2179047 C6.59751012,17.039823 6.55895798,16.8094375 6.62068838,16.5969947 Z" id="Path" fill="#FFFFFF"></path>
                <path d="M29.8020608,28.2666406 L4.19793918,28.2666406 C3.41561325,28.2666406 2.7755102,27.5166406 2.7755102,26.6 L2.7755102,30.1833594 C2.7755102,31.1 3.41561325,31.85 4.19793918,31.85 L29.8020608,31.85 C30.5843868,31.85 31.2244898,31.1 31.2244898,30.1833594 L31.2244898,26.6 C31.2244898,27.5166406 30.6555315,28.2666406 29.8020608,28.2666406 Z" id="Shape" fill="#1269B7" fill-rule="nonzero"></path>
                <g id="Group" transform="translate(4.857143, 20.650000)" fill="#FFFFFF">
                    <path d="M3.64285714,3.5 L1.56122449,3.5 C0.698984013,3.5 0,2.71649831 0,1.75 C0,0.783501688 0.698984013,0 1.56122449,0 L3.64285714,0 C4.50509762,0 5.20408163,0.783501688 5.20408163,1.75 C5.20408163,2.71649831 4.50509762,3.5 3.64285714,3.5 Z" id="Path"></path>
                    <path d="M22.7244898,3.5 L20.6428571,3.5 C19.7806167,3.5 19.0816327,2.71649831 19.0816327,1.75 C19.0816327,0.783501688 19.7806167,0 20.6428571,0 L22.7244898,0 C23.5867303,0 24.2857143,0.783501688 24.2857143,1.75 C24.2857143,2.71649831 23.5867303,3.5 22.7244898,3.5 Z" id="Path"></path>
                </g>
                <path d="M11.4489796,21.7 L11.4489796,25.2 C11.4489796,25.779899 11.9190806,26.25 12.4989796,26.25 L21.5010204,26.25 C22.0809194,26.25 22.5510204,25.779899 22.5510204,25.2 L22.5510204,21.7 C22.5510204,21.120101 22.0809194,20.65 21.5010204,20.65 L12.4989796,20.65 C11.9190806,20.65 11.4489796,21.120101 11.4489796,21.7 Z" id="Shape" fill="#156B7D" fill-rule="nonzero"></path>
            </g>
        </g>
    </g>
</svg>