<?xml version="1.0" encoding="UTF-8"?>
<svg width="24px" height="24px" viewBox="0 0 24 24" version="1.1" xmlns="http://www.w3.org/2000/svg" xmlns:xlink="http://www.w3.org/1999/xlink">
    <!-- Generator: Sketch 52.5 (67469) - http://www.bohemiancoding.com/sketch -->
    <title>ic_menu_frete_on</title>
    <desc>Created with Sketch.</desc>
    <g id="Assets" stroke="none" stroke-width="1" fill="none" fill-rule="evenodd">
        <g id="ic_menu_frete_on">
            <rect id="bounds" x="0" y="0" width="24" height="24"></rect>
            <path d="M8.5435791,6.01963044 C8.5435791,6.85995483 7.85995483,7.5435791 7.01963044,7.54343415 C6.179451,7.54343415 5.49582673,6.85995483 5.49582673,6.01963044 C5.49582673,5.179451 6.179451,4.49582673 7.01963044,4.49582673 C7.85995483,4.49582673 8.5435791,5.179451 8.5435791,6.01963044 Z M6.23801423,6.01963044 C6.23801423,6.45059204 6.5886688,6.8013916 7.01963044,6.80124665 C7.45073699,6.80124665 7.8013916,6.45059204 7.8013916,6.01963044 C7.8013916,5.5886688 7.45073699,5.23801423 7.01963044,5.23801423 C6.5886688,5.23801423 6.23801423,5.5886688 6.23801423,6.01963044 Z M17.261528,12.7228012 C18.8357773,12.7228012 20.0229874,13.3678665 20.0229874,14.2231217 C20.0229874,15.0783768 18.8357773,15.7234421 17.261528,15.7234421 C16.954071,15.7234421 16.6616898,15.6985092 16.3897476,15.6525574 L15.511879,16.5557938 C15.4391098,16.6305924 15.3424225,16.6681366 15.2457352,16.6681366 C15.1525269,16.6681366 15.0591736,16.6333465 14.9871292,16.5631867 C14.8401413,16.4204025 14.8368073,16.1854248 14.9795914,16.0384369 L15.5737762,15.4271469 C14.9127655,15.1581039 14.5000687,14.7272873 14.5000687,14.2231217 C14.5000687,14.1452789 14.5102157,14.0690308 14.5292053,13.994957 L13.5091324,13.767807 C13.3089447,13.7233048 13.1829758,13.5250015 13.227478,13.3249588 C13.2721252,13.1249161 13.4707184,12.9989471 13.6703262,13.0434494 L15.0011902,13.3397446 C15.4924545,12.961113 16.3052368,12.7228012 17.261528,12.7228012 Z M17.261528,14.9812546 C18.4754105,14.9812546 19.2807999,14.5249252 19.2807999,14.2231217 C19.2807999,13.921318 18.4754105,13.4649887 17.261528,13.4649887 C16.339737,13.4649887 15.6540833,13.7280884 15.3770676,13.9868393 C15.3670654,13.998436 15.3561935,14.0090179 15.3447418,14.0190201 C15.2779159,14.0900497 15.2422562,14.1599197 15.2422562,14.2231217 C15.2422562,14.5249252 16.0476456,14.9812546 17.261528,14.9812546 Z M12.8487015,19.2957992 C13.5097122,19.5646973 13.922409,19.9955139 13.922409,20.4996795 C13.922409,21.3549347 12.735199,22 11.1609497,22 C9.58670044,22 8.39949037,21.3549347 8.39949037,20.4996795 C8.39949037,19.6444245 9.58670044,18.9993591 11.1609497,18.9993591 C11.4684067,18.9993591 11.7607879,19.024292 12.0327301,19.0702438 L12.9105988,18.1671524 C13.0535278,18.0201645 13.2885055,18.0168304 13.4353485,18.1596146 C13.5823364,18.3025436 13.5856705,18.5373764 13.4428864,18.6843643 L12.8487015,19.2957992 Z M11.1609497,21.2578125 C12.3748322,21.2578125 13.1802215,20.8014832 13.1802215,20.4996795 C13.1802215,20.197876 12.3748322,19.7415466 11.1609497,19.7415466 C9.94706724,19.7415466 9.14167787,20.197876 9.14167787,20.4996795 C9.14167787,20.8014832 9.94706724,21.2578125 11.1609497,21.2578125 Z M10.6108322,13.1224518 L9.28011321,12.8261566 C8.78884888,13.2046432 7.97592163,13.442955 7.01963044,13.442955 C5.44538117,13.442955 4.25817107,12.7980347 4.25817107,11.9427795 C4.25817107,11.2558212 5.03108977,10.7860107 5.91939544,10.5697327 L4.26194001,7.24989321 C4.25918579,7.24452971 4.25657652,7.23902131 4.25425718,7.23351287 C4.08552553,6.84966277 4,6.4413147 4,6.01963044 C4,4.35463714 5.35463714,3 7.01963044,3 C8.6847687,3 10.0392609,4.35463714 10.0392609,6.01963044 C10.0392609,6.44145965 9.95373535,6.84980776 9.78514861,7.23351287 C9.78268433,7.23902131 9.78007505,7.24452971 9.77746582,7.24989321 L8.12160491,10.5663986 C9.00759124,10.7776032 9.78108977,11.2472687 9.78108977,11.9426346 C9.78108977,12.0206222 9.77108765,12.0967254 9.75195312,12.1707992 L10.772171,12.3980942 C10.9722137,12.4425964 11.0981827,12.6408997 11.0536804,12.8409424 C11.0152664,13.0137329 10.8619003,13.1314392 10.691864,13.1314392 C10.6650467,13.1314392 10.6380844,13.12854 10.6108322,13.1224518 Z M4.7421875,6.01963044 C4.7421875,6.33491518 4.8053894,6.6400528 4.93019866,6.92678069 L7.01963044,11.1120224 L9.10920717,6.92678069 C9.23387144,6.64019775 9.29707338,6.33506013 9.29707338,6.01963044 C9.29707338,4.76385498 8.2754059,3.7421875 7.01963044,3.7421875 C5.76385498,3.7421875 4.7421875,4.76385498 4.7421875,6.01963044 Z M5.00035857,11.9427795 C5.00035857,12.2445831 5.80574798,12.7007675 7.01963044,12.7007675 C7.94113159,12.7007675 8.6267853,12.4378128 8.90380096,12.1792069 C8.91380308,12.1679001 8.92453003,12.1574631 8.93583677,12.1474609 C9.00295257,12.0761414 9.03890227,12.0059814 9.03890227,11.9426346 C9.03890227,11.7389679 8.56561279,11.4009247 7.77935791,11.2517624 L7.35173033,12.1084671 C7.28881836,12.2342911 7.16024016,12.3137283 7.01963044,12.3137283 C6.87902068,12.3137283 6.75044252,12.2342911 6.68767547,12.1084671 L6.26106264,11.2540817 C5.48365022,11.4088974 5.00035857,11.7478104 5.00035857,11.9427795 Z M14.2111664,16.9903793 C14.4155579,16.9903793 14.5822601,17.1569367 14.5822601,17.3614731 C14.5822601,17.5658646 14.4155579,17.7325668 14.2111664,17.7325668 C14.0067749,17.7325668 13.8400726,17.5658646 13.8400726,17.3614731 C13.8400726,17.1569367 14.0067749,16.9903793 14.2111664,16.9903793 Z M12.1405792,13.4539719 C11.9361877,13.4539719 11.7694855,13.2872696 11.7694855,13.0828781 C11.7694855,12.8784866 11.9361877,12.7117844 12.1405792,12.7117844 C12.3449707,12.7117844 12.511673,12.8784866 12.511673,13.0828781 C12.511673,13.2872696 12.3449707,13.4539719 12.1405792,13.4539719 Z" id="Combined-Shape" fill="#07C2DC"></path>
        </g>
    </g>
</svg>