<?xml version="1.0" encoding="UTF-8"?>
<svg width="24px" height="24px" viewBox="0 0 24 24" version="1.1" xmlns="http://www.w3.org/2000/svg" xmlns:xlink="http://www.w3.org/1999/xlink">
    <!-- Generator: Sketch 52.4 (67378) - http://www.bohemiancoding.com/sketch -->
    <title>ic_menu_support-on</title>
    <desc>Created with Sketch.</desc>
    <g id="Assets" stroke="none" stroke-width="1" fill="none" fill-rule="evenodd">
        <g id="ic_menu_support-on">
            <rect id="bounds" x="0" y="0" width="24" height="24"></rect>
            <path d="M11.9008716,2 C6.43266648,2 1.99984615,6.43282054 1.99984615,11.9010252 C1.99984615,17.3692304 6.43266648,21.8015379 11.9008716,21.8015379 C17.3690768,21.8015379 21.8018978,17.3692304 21.8018978,11.9010252 C21.8018978,6.43282054 17.3690768,2 11.9008716,2 M11.9008716,2.86820516 C14.3136921,2.86820516 16.5818974,3.80769235 18.2880511,5.51384627 C19.9942048,7.21999995 20.9336923,9.48820523 20.9336923,11.9010252 C20.9336923,14.3138457 19.9942048,16.582051 18.2880511,18.2882047 C16.5818974,19.9943593 14.3136921,20.9338469 11.9008716,20.9338469 C9.48805118,20.9338469 7.21984636,19.9943593 5.51369222,18.2882047 C3.80753842,16.582051 2.86805129,14.3138457 2.86805129,11.9010252 C2.86805129,9.48820523 3.80753842,7.21999995 5.51369222,5.51384627 C7.21984636,3.80769235 9.48805118,2.86820516 11.9008716,2.86820516" id="Fill-2" fill="#07C2DC"></path>
            <path d="M11.9008716,14.1944613 C11.6613849,14.1944613 11.4670251,14.0001025 11.4670251,13.7606158 L11.4670251,6.53958951 C11.4670251,6.29958979 11.6613849,6.10523096 11.9008716,6.10523096 C12.1403593,6.10523096 12.3347182,6.29958979 12.3347182,6.53958951 L12.3347182,13.7606158 C12.3347182,14.0001025 12.1403593,14.1944613 11.9008716,14.1944613" id="Fill-3" fill="#07C2DC"></path>
            <path d="M11.9008716,17.6963593 C11.6613849,17.6963593 11.4670251,17.5020005 11.4670251,17.2625128 L11.4670251,16.7789226 C11.4670251,16.5389234 11.6613849,16.3445646 11.9008716,16.3445646 C12.1403593,16.3445646 12.3347182,16.5389234 12.3347182,16.7789226 L12.3347182,17.2625128 C12.3347182,17.5020005 12.1403593,17.6963593 11.9008716,17.6963593" id="Fill-4" fill="#07C2DC"></path>
        </g>
    </g>
</svg>