<?xml version="1.0" encoding="UTF-8"?>
<svg width="24px" height="24px" viewBox="0 0 24 24" version="1.1" xmlns="http://www.w3.org/2000/svg" xmlns:xlink="http://www.w3.org/1999/xlink">
    <!-- Generator: Sketch 52.4 (67378) - http://www.bohemiancoding.com/sketch -->
    <title>ic_search</title>
    <desc>Created with Sketch.</desc>
    <g id="Assets" stroke="none" stroke-width="1" fill="none" fill-rule="evenodd">
        <g id="Icone_Header_Search">
            <rect id="Rectangle" x="0" y="0" width="24" height="24"></rect>
            <path d="M16.3881905,14.7787367 C16.4038813,14.7927884 16.4192664,14.8073432 16.4343237,14.8224006 L21.6597533,20.0478301 C22.1086551,20.4967319 22.1139433,21.2192573 21.6646164,21.6685843 C21.2184004,22.1148003 20.4883288,22.1081878 20.0438622,21.6637212 L14.8184327,16.4382916 C14.8009531,16.4208121 14.7841462,16.4029177 14.7680125,16.3846406 C13.4362843,17.3731364 11.7857451,17.9580949 9.99825264,17.9580949 C5.58093968,17.9580949 2,14.3857537 2,9.97904744 C2,5.57234122 5.58093968,2 9.99825264,2 C14.4155656,2 17.9965053,5.57234122 17.9965053,9.97904744 C17.9965053,11.7808091 17.3978684,13.4430873 16.3881905,14.7787367 Z M14.9730817,14.6848336 C16.1387722,13.4588138 16.8538978,11.8022434 16.8538978,9.97904744 C16.8538978,6.20187068 13.7845209,3.13986392 9.99825264,3.13986392 C6.21198439,3.13986392 3.14260752,6.20187068 3.14260752,9.97904744 C3.14260752,13.7562242 6.21198439,16.818231 9.99825264,16.818231 C11.8107324,16.818231 13.4589351,16.1165661 14.6848057,14.9706718 C14.722519,14.9169401 14.7654358,14.8656712 14.8135696,14.8175375 C14.8634574,14.7676496 14.9168934,14.7234219 14.9730817,14.6848336 Z" id="Search-Icon" fill="#FFFFFF"></path>
        </g>
    </g>
</svg>