<?xml version="1.0" encoding="UTF-8"?>
<svg width="61px" height="44px" viewBox="0 0 61 44" version="1.1" xmlns="http://www.w3.org/2000/svg" xmlns:xlink="http://www.w3.org/1999/xlink">
    <!-- Generator: Sketch 52.4 (67378) - http://www.bohemiancoding.com/sketch -->
    <title>ic_truck-error</title>
    <desc>Created with Sketch.</desc>
    <g id="Assets" stroke="none" stroke-width="1" fill="none" fill-rule="evenodd">
        <g id="ic_truck-error">
            <g id="Group-2" transform="translate(4.000000, 4.000000)">
                <rect id="Rectangle-2" fill-opacity="0.12" fill="#000000" x="0" y="34.6666667" width="53" height="1.33333333" rx="0.666666667"></rect>
                <g id="Truck" transform="translate(5.300000, 0.000000)">
                    <path d="M17.225,0 C15.7622,0 14.575,1.19466667 14.575,2.66666667 L14.575,22.6666667 L42.4,24 L42.4,2.66666667 C42.4,1.19466667 41.2128,0 39.75,0 L17.225,0 Z" id="Fill-473" fill="#F95457"></path>
                    <polygon id="Combined-Shape" fill="#FFFFFF" points="28 10.4615385 24.5384615 7 23 8.53846154 26.4615385 12 23 15.4615385 24.5384615 17 28 13.5384615 31.4615385 17 33 15.4615385 29.5384615 12 33 8.53846154 31.4615385 7"></polygon>
                    <path d="M41.075,22.6666667 L0,22.6666667 L0,28 C0,28.7373333 0.5936,29.3333333 1.325,29.3333333 L41.075,29.3333333 C41.8064,29.3333333 42.4,28.736 42.4,28 L42.4,24 C42.4,23.2626667 41.8064,22.6666667 41.075,22.6666667" id="Fill-466" fill="#3C5097"></path>
                    <path d="M11.925,8 L6.625,8 C5.160875,8 4.41225,8.45333333 3.975,9.33333333 L0,17.3333333 L0,25.3333333 L5.3,25.3333333 C5.3,22.6666667 9.275,22.6666667 9.275,22.6666667 L14.575,22.6666667 L14.575,10.6666667 C14.575,9.19466667 13.3878,8 11.925,8" id="Fill-467" fill="#FDB335"></path>
                    <path d="M10.6,10.6666667 L6.625,10.6666667 C5.8936,10.6666667 5.6233,11.3493333 5.3,12 L2.65,17.3333333 L10.6,17.3333333 C11.3314,17.3333333 11.925,16.736 11.925,16 L11.925,12 C11.925,11.2626667 11.3314,10.6666667 10.6,10.6666667" id="Fill-468" fill="#FEFEFE"></path>
                    <path d="M1.325,20 L0,20 L0,24 L1.325,24 C2.0564,24 2.65,23.4026667 2.65,22.6666667 L2.65,21.3333333 C2.65,20.596 2.0564,20 1.325,20" id="Fill-469" fill-opacity="0.38" fill="#000000"></path>
                    <path d="M23.85,24 L18.55,24 C17.817275,24 17.225,24.447 17.225,25 L17.225,27 C17.225,27.552 17.817275,28 18.55,28 L23.85,28 C24.5814,28 25.175,27.552 25.175,27 L25.175,25 C25.175,24.447 24.5814,24 23.85,24" id="Fill-470" fill-opacity="0.24" fill="#000000"></path>
                    <path d="M5.3,29.3333333 C5.3,32.2786667 5.3,33.6666667 10.6,33.6666667 C15.9,33.6666667 15.9,32.2786667 15.9,29.3333333 C15.9,26.388 13.526925,24 10.6,24 C7.673075,24 5.3,26.388 5.3,29.3333333 Z M26.5,29.3333333 C26.5,32.2786667 26.5,33.6666667 31.8,33.6666667 C37.1,33.6666667 37.1,32.2786667 37.1,29.3333333 C37.1,26.388 34.726925,24 31.8,24 C28.873075,24 26.5,26.388 26.5,29.3333333 Z" id="Fill-471" fill="#152532"></path>
                    <path d="M31.8,26.6666667 C30.335875,26.6666667 29.15,27.86 29.15,29.3333333 C29.15,30.8053333 30.335875,31.9986667 31.8,31.9986667 C33.2628,31.9986667 34.45,30.8053333 34.45,29.3333333 C34.45,27.86 33.2628,26.6666667 31.8,26.6666667 L31.8,26.6666667 Z M10.6,26.6666667 C9.135875,26.6666667 7.95,27.86 7.95,29.3333333 C7.95,30.8053333 9.135875,31.9986667 10.6,31.9986667 C12.0628,31.9986667 13.25,30.8053333 13.25,29.3333333 C13.25,27.86 12.0628,26.6666667 10.6,26.6666667 L10.6,26.6666667 Z" id="Fill-472" fill="#FEFEFE"></path>
                </g>
            </g>
        </g>
    </g>
</svg>