<?xml version="1.0" encoding="UTF-8"?>
<svg width="24px" height="24px" viewBox="0 0 24 24" version="1.1" xmlns="http://www.w3.org/2000/svg" xmlns:xlink="http://www.w3.org/1999/xlink">
    <!-- Generator: Sketch 52.4 (67378) - http://www.bohemiancoding.com/sketch -->
    <title>ic_menu_truck-on</title>
    <desc>Created with Sketch.</desc>
    <g id="Assets" stroke="none" stroke-width="1" fill="none" fill-rule="evenodd">
        <g id="ic_menu_truck-on" fill="#07C2DC" fill-rule="nonzero">
            <g id="Group-6" transform="translate(2.000000, 5.000000)">
                <path d="M13.0434783,7 L13.0434783,11.375 L14.1304348,11.375 C14.4347826,10.85 15,10.5 15.6521739,10.5 C16.2608696,10.5 16.826087,10.85 17.173913,11.375 L19.1304348,11.375 L19.1304348,7.7 L17.7757437,7 L13.0434783,7 Z M13.0434783,6.125 L17.1473744,6.125 L15.826087,3.5 L13.0434783,3.5 L13.0434783,6.125 Z M13.0434783,2.625 L16.3478261,2.625 L18.1304348,6.25625 L20,7.175 L20,12.25 L16.5652174,12.25 L16.4782609,11.94375 C16.3478261,11.59375 16.0434783,11.375 15.6521739,11.375 C15.3043478,11.375 14.9565217,11.59375 14.826087,11.94375 L14.7391304,12.25 L5.73913043,12.25 C5.73913043,13.2125 4.95652174,14 4,14 C3.04347826,14 2.26086957,13.2125 2.26086957,12.25 L0,12.25 L0,11.375 L1.30434783,11.375 L1.30434783,0 L13.0434783,0 L13.0434783,2.625 Z M12.173913,2.625 L12.173913,0.875 L2.17391304,0.875 L2.17391304,11.375 L2.47826087,11.375 C2.76991079,10.8719039 3.30111652,10.5295098 3.91883732,10.501815 C3.945753,10.5006365 3.97280622,10.5 4,10.5 C4.54301457,10.5 5.02998045,10.7537955 5.34953229,11.149325 C5.41150953,11.2201398 5.4691126,11.2955668 5.52173913,11.375 L12.173913,11.375 L12.173913,2.625 Z M4.86107909,12.127992 L4.7826087,11.94375 C4.65471019,11.6005557 4.35959627,11.3835567 3.97924892,11.3752475 C3.51047222,11.3864385 3.13043478,11.775729 3.13043478,12.25 C3.13043478,12.73125 3.52173913,13.125 4,13.125 C4.47826087,13.125 4.86956522,12.73125 4.86956522,12.25 C4.86956522,12.2086188 4.86667201,12.1678845 4.86107909,12.127992 Z" id="Combined-Shape"></path>
                <path d="M15.6521739,14 C14.6956522,14 13.9130435,13.2125 13.9130435,12.25 C13.9130435,11.2875 14.6956522,10.5 15.6521739,10.5 C16.6086957,10.5 17.3913043,11.2875 17.3913043,12.25 C17.3913043,13.2125 16.6086957,14 15.6521739,14 Z M15.6521739,11.375 C15.173913,11.375 14.7826087,11.76875 14.7826087,12.25 C14.7826087,12.73125 15.173913,13.125 15.6521739,13.125 C16.1304348,13.125 16.5217391,12.73125 16.5217391,12.25 C16.5217391,11.76875 16.1304348,11.375 15.6521739,11.375 Z" id="Shape"></path>
            </g>
        </g>
    </g>
</svg>