<?xml version="1.0" encoding="UTF-8"?>
<svg width="29px" height="28px" viewBox="0 0 29 28" version="1.1" xmlns="http://www.w3.org/2000/svg" xmlns:xlink="http://www.w3.org/1999/xlink">
    <!-- Generator: Sketch 52.4 (67378) - http://www.bohemiancoding.com/sketch -->
    <title>ic_weight</title>
    <desc>Created with Sketch.</desc>
    <g id="Assets" stroke="none" stroke-width="1" fill="none" fill-rule="evenodd">
        <g id="ic_weight">
            <rect id="Request-/-Icon-/-Animals-Icon" x="0" y="0" width="28" height="28"></rect>
            <path d="M14.1842765,1.00854697 C12.5950741,1.08030813 11.0368966,1.73531179 9.82473736,2.94353541 C9.53967372,3.24046552 9.28490494,3.55753269 9.05057606,3.88521758 L5.87253626,3.88521758 C4.29355381,3.88521758 3,5.19559102 3,6.77177365 L3,24.1130778 C3,25.6998782 4.29355381,27 5.87253626,27 L23.1274637,27 C24.6962262,27 26,25.6998782 26,24.1130778 L26,6.77177365 C26,5.19522489 24.6962262,3.88521758 23.1274637,3.88521758 L19.939569,3.88521758 C19.7154601,3.55753269 19.4606913,3.24009939 19.1756276,2.94353541 C17.8003142,1.57165241 15.9870029,0.916282624 14.1842765,1.00854697 L14.1842765,1.00854697 Z M14.5,2.71800034 C15.7424541,2.71800034 16.9954931,3.20934461 17.9528835,4.17152997 C19.8778843,6.09590068 19.8778843,9.19774024 17.9528835,11.122111 C16.0381026,13.0468478 12.9516774,13.0468478 11.0368966,11.122111 C9.12175072,9.19774024 9.12175072,6.09590068 11.0368966,4.17152997 C11.994287,3.20934461 13.246961,2.71800034 14.5,2.71800034 L14.5,2.71800034 Z M16.5063954,4.71413221 C16.2925064,4.72438381 16.0687625,4.81628203 15.9158282,4.98030754 L14.9379979,5.97324768 C14.7952836,5.9322413 14.6525693,5.91173811 14.5,5.91173811 C13.5422446,5.91173811 12.7786682,6.6897609 12.7786682,7.64206079 C12.7786682,8.60424615 13.5426096,9.37201734 14.5,9.37201734 C15.4471705,9.37201734 16.2213318,8.60424615 16.2213318,7.64206079 C16.2213318,7.488653 16.2008919,7.33487909 16.1603771,7.1917229 L17.1382074,6.20903435 C17.3929762,5.96336221 17.4743708,5.56428229 17.3316565,5.24684899 C17.1995271,4.92904957 16.8527787,4.70388062 16.5063954,4.71413221 L16.5063954,4.71413221 Z M5.87253626,5.6250596 L8.21509506,5.6250596 C7.49203352,7.91812158 8.02164598,10.5286169 9.82437236,12.3405862 C12.401625,14.9305783 16.598375,14.9305783 19.1752626,12.3405862 C20.977989,10.5286169 21.5079665,7.91812158 20.7845399,5.6250596 L23.1270987,5.6250596 C23.7789856,5.6250596 24.2680833,6.11640387 24.2680833,6.77140753 L24.2680833,24.1127117 C24.2680833,24.7677153 23.7789856,25.2693112 23.1270987,25.2693112 L5.87253626,25.2693112 C5.22064938,25.2693112 4.72133177,24.7677153 4.72133177,24.1127117 L4.72133177,6.77177365 C4.72133177,6.11677 5.22064938,5.6250596 5.87253626,5.6250596 L5.87253626,5.6250596 Z" id="Shape" fill-opacity="0.54" fill="#000000" fill-rule="nonzero"></path>
        </g>
    </g>
</svg>